<?xml version="1.0" encoding="utf-8"?>
<!-- Generator: Adobe Illustrator 16.0.0, SVG Export Plug-In . SVG Version: 6.00 Build 0)  -->
<!DOCTYPE svg PUBLIC "-//W3C//DTD SVG 1.0//EN" "http://www.w3.org/TR/2001/REC-SVG-20010904/DTD/svg10.dtd">
<svg version="1.0" id="Layer_1" xmlns="http://www.w3.org/2000/svg" xmlns:xlink="http://www.w3.org/1999/xlink" x="0px" y="0px"
	 width="495.333px" height="134.667px" viewBox="0 0 495.333 134.667" enable-background="new 0 0 495.333 134.667"
	 xml:space="preserve">
<g>
	<path fill="#333333" d="M5.789,128.039V6.847h22.437v121.192H5.789z"/>
	<path fill="#333333" d="M124.688,128.039L74.083,39.93h-0.328v88.109H51.318V6.847h25.549l50.114,88.11h0.328V6.847h22.437v121.192
		H124.688z"/>
	<path fill="#333333" d="M239.659,120.178c-11.628,6.388-27.186,7.861-40.288,7.861h-28.005V6.847h27.514
		c16.869,0,36.521,2.457,49.787,14.084c12.938,11.464,19.98,29.643,19.98,46.839C268.646,88.406,258.165,110.024,239.659,120.178z
		 M233.272,37.964c-11.3-9.99-25.221-10.154-39.469-10.154v79.266h4.75c10.809,0,19.816-0.491,29.479-5.896
		c11.792-6.551,18.179-20.145,18.179-33.41C246.21,56.798,241.625,45.334,233.272,37.964z"/>
	<path fill="#333333" d="M341.038,128.039l-32.1-46.348h-0.328v46.348h-22.437V6.847h37.177c10.645,0,20.963,1.311,29.479,8.189
		c9.008,7.206,14.248,17.851,14.248,29.315c0,10.317-4.258,21.781-11.628,28.987c-6.223,5.896-11.955,8.025-20.144,9.99
		l32.918,44.71H341.038z M323.022,27.81H308.61v37.013h14.412c11.956,0,21.618-5.896,21.618-18.671
		C344.641,33.706,334.486,27.81,323.022,27.81z"/>
	<path fill="#333333" d="M465.833,128.039l-12.938-31.28h-43.399l-12.938,31.28h-24.729L422.269,6.847h17.524l50.77,121.192H465.833
		z M431.112,38.455h-0.327l-13.757,37.177h27.842L431.112,38.455z"/>
</g>
</svg>
