<?xml version="1.0" encoding="UTF-8" standalone="no"?><!DOCTYPE svg PUBLIC "-//W3C//DTD SVG 1.1//EN" "http://www.w3.org/Graphics/SVG/1.1/DTD/svg11.dtd"><svg width="100%" height="100%" viewBox="0 0 800 800" version="1.1" xmlns="http://www.w3.org/2000/svg" xmlns:xlink="http://www.w3.org/1999/xlink" xml:space="preserve" xmlns:serif="http://www.serif.com/" style="fill-rule:evenodd;clip-rule:evenodd;stroke-linejoin:round;stroke-miterlimit:1.41421;"><circle cx="400" cy="400" r="400"/><g><path d="M595.198,254.723c-77.856,-20.189 -315.597,268.433 -183.112,296.047c112.215,23.389 308.968,-263.412 183.112,-296.047Zm-29.174,42.557c19.806,49.363 -100.063,207.613 -158.283,201.681c-71.92,-7.326 144.158,-236.884 158.283,-201.681Z" style="fill:#fff;"/><path d="M402.154,138.154c-33.712,-25.819 -108.875,44.703 -69.52,74.012c37.553,27.967 103.086,-48.305 69.52,-74.012Z" style="fill:#fff;"/><path d="M363.62,384.078c2.946,-3.451 5.599,-7.141 7.931,-11.033c42.296,-70.522 82.871,-132.431 89.836,-134.899c0.272,-0.021 0.546,-0.019 0.819,0.004c15.262,1.284 27.407,6.469 36.22,15.785c5.834,6.034 6.521,15.339 1.637,22.155c-67.763,94.841 -142.582,209.954 -187.594,382.149c-1.482,5.674 -6.798,9.513 -12.687,9.164c-38.563,-1.835 -47.172,-52.891 -29.841,-103.681c5.37,-15.736 17.632,-41.167 33.507,-71.066c-40.845,35.186 -83.693,61.884 -113.579,53.796c-90.723,-24.551 87.154,-288.021 100.759,-285.163c0.123,0.094 0.269,0.154 0.424,0.172c9.32,1.171 17.519,3.508 24.326,7.341c7.63,4.295 13.003,11.674 14.724,20.218c1.721,8.544 -0.382,17.409 -5.76,24.291c-31.187,40.495 -103.908,160.782 -73.643,164.064c23.712,2.571 72.165,-45.656 112.921,-93.297Z" style="fill:#fff;"/></g></svg>