<svg xmlns="http://www.w3.org/2000/svg" width="500" height="160" viewBox="0 0 500.652 160.055" shape-rendering="geometricPrecision" text-rendering="geometricPrecision" image-rendering="optimizeQuality" fill-rule="evenodd" clip-rule="evenodd"><defs><style type="text/css"><![CDATA[
    .fil0 {fill:white;fill-rule:nonzero}
   ]]></style></defs><g id="Layer_x0020_1"><path class="fil0" d="M10.828 134.862l-.902 19.575-9.926 5.282 8.923-159.719h10.527l8.873 144.673-9.926 5.266-.852-18.214-6.717 3.137zm1.053-24.825l4.562-1.729-2.256-53.09-2.306 54.819zm28.975-85.693v36.413l4.612-.912c.353-.07.674-.408.902-1.024.222-.6.301-1.536.301-2.785v-29.53c0-1.745-.251-2.609-.852-2.561l-4.963.4zm5.966 59.844c0-1.521-.147-2.499-.401-3.009-.247-.498-.654-.663-1.103-.544l-4.461 1.184v32.779l4.963-1.873c.394-.149.654-.448.802-.944.153-.512.201-1.248.201-2.241v-25.353zm9.324-31.931c0 3.281-.23 6.15-.702 8.611-.48 2.501-1.404 4.353-2.707 5.634 1.353-.064 2.356.992 2.958 3.153.601 2.161.902 4.706.902 7.619v34.156c0 7.266-.531 12.73-1.654 16.373-1.132 3.672-3.157 6.148-6.016 7.443l-17.846 8.083v-143.329h19.2c1.955 0 3.427 1.483 4.411 4.418.97 2.891 1.454 6.755 1.454 11.62v36.22zm7.018 76.794l-1.805-23.464 10.628-3.249c.755-.231 1.153-1.216 1.153-2.945v-22.808c0-1.729-.137-2.749-.401-3.025-.288-.301-.751-.361-1.454-.208l-5.063 1.104c-.754.164-1.454.192-2.106.032-.651-.16-1.253-.72-1.754-1.68-.501-.96-.926-2.357-1.203-4.225-.274-1.845-.451-4.386-.451-7.619v-44.095c0-5.138.519-9.245 1.604-12.308 1.07-3.019 2.757-4.562 5.063-4.562h13.585l1.704 22.68-11.179.784c-.803.056-1.203 1.008-1.203 2.865v23.016c0 1.28.1 2.129.351 2.561.251.432.651.59 1.153.512l6.166-.96c1.605-.25 2.821.473 3.659 2.209.816 1.69 1.253 4.85 1.253 9.443v40.094c0 6.706-.534 11.674-1.654 14.869-1.136 3.239-3.108 5.363-5.915 6.418l-12.132 4.562zm42.511-129.052l2.456 21.127-6.567.384v93.872l-10.076 3.057v-96.369l-6.617.464 2.607-22.536h18.197zm15.039 19.207v37.773l4.813-.624c.653-.085.952-.88.952-2.369v-32.811c0-1.489-.302-2.223-.952-2.193l-4.813.224zm15.49 43.567c0 2.337-.356 4.528-1.103 6.578-.757 2.079-1.855 3.233-3.309 3.457l5.164 32.827-10.177 2.385-4.762-33.643-1.303.272v34.892l-9.876 3.009v-112.55h18.698c2.306 0 4.011 1.264 5.063 3.745 1.053 2.481 1.604 5.81 1.604 9.987v49.041zm13.184 27.193l-.902 12.948-9.926 2.337 8.923-105.252h10.527l8.923 99.49-9.926 1.648-.902-12.404-6.717 1.232zm1.103-16.47l4.562-.704-2.256-35.82-2.306 36.524zm26.369 24.344c-2.857.48-4.882-.342-6.016-2.529-1.123-2.167-1.654-6.018-1.654-11.492v-71.64c0-3.921.552-6.931 1.654-9.027 1.103-2.097 2.456-3.153 4.111-3.153h12.984l1.704 17.894-9.475.24c-.601.015-.852.656-.852 1.905v57.38c0 1.264.251 1.845.852 1.777l9.475-1.072-1.805 18.038-10.979 1.68zm35.593-97.841l2.456 17.43-6.617.112v76.602l-10.026.992v-77.402l-6.617.128 2.607-17.862h18.197zm23.11 81.116l-.902 11.508-9.876.336 8.873-92.96h10.527l8.923 92.207-9.926.144-.902-11.428-6.717.192zm1.103-14.709l4.562-.112-2.256-32.731-2.306 32.843zm28.925-50.177v60.181l4.662.128c.401.011.65-.129.752-.432.098-.289.15-.784.15-1.456v-56.595c0-1.184-.251-1.789-.852-1.793l-4.712-.032zm15.39 62.533c0 5.138-.579 8.815-1.704 10.996-1.13 2.189-3.158 3.213-5.966 3.121l-17.495-.576v-92.303h19.3c1.955 0 3.426 1.032 4.411 3.105.97 2.041 1.454 4.786 1.454 8.211v67.447zm21.055-78.763h9.976l-9.074 95.249-10.277-1.024-9.124-94.224h10.026l.852 12.116 3.359 49.057 3.359-49.233.902-11.94zm12.733 0h19.15l1.704 18.614-10.728-.32v23.272l8.121.576v17.142l-8.121-.8v21.383l10.327 1.392-1.704 18.31-18.749-3.105v-96.465zm34.089 17.926v35.276l4.813.592c.652.08.952-.592.952-2.017v-31.467c0-1.424-.301-2.149-.952-2.177l-4.813-.208zm15.49 44.927c0 2.337-.351 4.418-1.103 6.242-.752 1.825-1.855 2.625-3.309 2.385l5.164 34.636-10.177-2.401-4.762-33.803-1.303-.208v32.587l-9.826-1.793v-100.498h18.648c2.306 0 3.992 1.256 5.063 3.729 1.085 2.505 1.604 5.842 1.604 10.019v49.105zm23.511-62.853l2.456 21.047-6.567-.384v90.239l-10.076-2.785v-87.966l-6.617-.288 2.607-19.863h18.197zm5.163 0h9.876v116.728l-9.876-3.009v-113.719zm16.393 118.729l-1.754-22.536 10.577 3.153c.802.239 1.153-.496 1.153-2.177v-22.312c0-1.68-.117-2.709-.401-3.121-.268-.389-.748-.689-1.404-.832l-5.113-1.12c-.7-.153-1.404-.432-2.055-.848-.652-.416-1.273-1.158-1.805-2.241-.522-1.063-.903-2.497-1.203-4.29-.301-1.792-.451-4.145-.451-7.074v-40.014c0-4.674.551-8.371 1.604-11.14s2.757-4.178 5.063-4.178h13.585l1.704 23.496-11.129-.784c-.801-.057-1.253.801-1.253 2.593v22.104c0 1.232.147 2.082.401 2.577.247.482.601.754 1.103.832l6.216.976c1.556.244 2.754 1.394 3.609 3.441.849 2.034 1.253 5.458 1.253 10.211v41.582c0 6.962-.545 11.703-1.654 14.197-1.097 2.467-3.059 3.155-5.865 2.097l-12.182-4.594zm23.812-118.729h9.826v131.613l-9.826-3.905v-127.708zm13.936 0h9.374l5.013 56.211v-56.211h10.126v144.673l-10.126-4.674-5.314-59.892v57.492l-9.074-4.113v-133.486zm28.574 17.83c0-5.394.485-9.704 1.454-12.916.986-3.27 2.456-4.914 4.411-4.914h14.086l1.654 29.498-10.778-1.072c-.6-.06-.902.897-.902 2.849v90.223c0 1.936.297 3.05.902 3.313l4.462 1.937v-61.125l9.625 2.161v92.271l-17.245-9.155c-2.807-1.49-4.828-4.317-5.966-8.451-1.118-4.061-1.704-10.195-1.704-18.294v-106.324z"/><path class="fil0" d="M157.145 129.275c0-.615-.017-1.337-.049-2.166-.033-.82-.14-1.69-.312-2.592-.18-.91-.484-1.797-.902-2.666-.427-.861-1.034-1.649-1.821-2.354-.779-.705-1.797-1.271-3.043-1.69-1.247-.418-2.781-.632-4.602-.64-3.634.008-6.35.845-8.146 2.51-1.788 1.657-2.683 4.069-2.683 7.235 0 .992.156 1.969.46 2.937.303.968.747 1.879 1.312 2.724.706.919 1.501 1.747 2.379 2.494.878.747 1.797 1.444 2.765 2.092.968.656 1.936 1.296 2.912 1.936.976.632 1.92 1.296 2.822 1.993.894.607 1.575 1.304 2.043 2.084.476.788.714 1.715.714 2.789.008 1.411-.345 2.477-1.05 3.216-.705.738-1.78 1.107-3.232 1.116-1.124-.008-2.01-.279-2.666-.812-.648-.525-1.107-1.255-1.362-2.182-.262-.935-.361-2.002-.304-3.208v-2.166h-6.891v2.707c-.008 1.657.189 3.167.591 4.536.402 1.37 1.042 2.551 1.92 3.544.878 1.001 2.034 1.772 3.47 2.313 1.435.55 3.183.82 5.242.828 1.69 0 3.232-.23 4.619-.681 1.395-.451 2.592-1.124 3.593-2.018 1.009-.886 1.788-2.002 2.33-3.322.55-1.329.82-2.863.829-4.61.008-1.058-.09-2.026-.279-2.912-.189-.878-.517-1.714-.968-2.494-.451-.787-1.075-1.559-1.854-2.322-.492-.476-1.091-.984-1.797-1.534-.714-.55-1.46-1.099-2.256-1.657-.796-.558-1.567-1.083-2.322-1.575-.755-.5-1.419-.927-1.993-1.288-.73-.451-1.395-.902-1.985-1.354-.591-.46-1.058-.993-1.411-1.608-.353-.615-.533-1.386-.541-2.305.016-1.247.353-2.133 1.025-2.666.673-.533 1.591-.796 2.764-.779.943.008 1.682.197 2.24.558.55.361.96.853 1.222 1.477.262.624.427 1.321.5 2.1.074.771.098 1.575.074 2.412h6.645zm13.585 25.693v-36.915h-6.891v36.915h6.891zm23.232-29.639c0 1.657.033 3.355.098 5.103.066 1.739.148 3.503.246 5.275.098 1.772.213 3.544.328 5.308.115 1.764.238 3.478.361 5.16h-.098c-.558-1.994-1.099-3.823-1.624-5.513-.533-1.682-1.067-3.273-1.608-4.766-.541-1.493-1.099-2.945-1.69-4.364l-5.365-13.478h-7.137v36.915h6.891v-6.932c0-.984-.016-2.043-.049-3.167-.025-1.124-.066-2.28-.115-3.486-.057-1.206-.115-2.428-.18-3.659-.066-1.255-.139-2.486-.221-3.708-.082-1.23-.172-2.412-.263-3.56-.082-1.148-.172-2.231-.254-3.249h.098c.541 1.928 1.066 3.724 1.591 5.398.525 1.682 1.058 3.273 1.608 4.791.542 1.517 1.116 3.002 1.723 4.454l5.365 13.117h7.186v-36.915h-6.891v7.276zm28.499 16.497c-.025.484-.041 1.083-.057 1.788-.008.705-.057 1.444-.148 2.215-.082.763-.238 1.485-.468 2.166-.222.673-.566 1.222-1.017 1.641-.451.427-1.05.64-1.805.656-.935-.008-1.714-.189-2.33-.541-.615-.353-1.099-.82-1.46-1.403-.361-.582-.623-1.23-.796-1.936-.164-.706-.271-1.419-.32-2.133-.049-.722-.074-1.386-.066-2.01v-10.238c-.008-.582-.008-1.272 0-2.067 0-.787.066-1.6.189-2.444.123-.837.353-1.616.697-2.338.336-.722.837-1.312 1.493-1.764.656-.443 1.518-.681 2.592-.689.673.008 1.222.164 1.633.476.418.312.738.722.96 1.23.23.509.394 1.067.492 1.674.098.607.172 1.206.213 1.797.049.599.098 1.132.148 1.616h6.793c.025-.468.016-.935-.017-1.403-.033-.468-.082-.935-.131-1.403-.254-3.15-1.222-5.513-2.92-7.104-1.698-1.583-4.085-2.395-7.17-2.445-2.19.008-4.011.271-5.455.804-1.452.525-2.609 1.28-3.47 2.256-.862.976-1.501 2.141-1.936 3.503-.435 1.354-.73 2.855-.886 4.512-.164 1.657-.262 3.429-.312 5.316v5.266c-.016 1.977.041 3.823.164 5.554.131 1.723.402 3.289.82 4.692.418 1.403 1.067 2.617 1.936 3.626.878 1.009 2.051 1.788 3.536 2.33 1.485.55 3.355.82 5.603.828 1.912-.008 3.511-.312 4.799-.91 1.288-.599 2.322-1.444 3.093-2.519.779-1.075 1.354-2.338 1.723-3.774.369-1.444.599-3.011.673-4.709l.074-1.058.074-1.058h-6.94zm31.649 13.142v-5.414h-12.502v-11.37h11.518v-5.414h-11.518v-9.303h12.502v-5.414h-19.393v36.915h19.393zm36.128 0v-5.414h-12.846c.016-.632.148-1.247.377-1.854.238-.599.541-1.181.902-1.731.361-.558.746-1.066 1.157-1.542.41-.476.796-.902 1.157-1.272l5.414-5.611c.952-.96 1.756-1.961 2.404-3.002.648-1.034 1.14-2.133 1.477-3.306.336-1.165.5-2.428.5-3.782-.008-1.485-.246-2.806-.73-3.979-.476-1.173-1.157-2.166-2.034-2.994-.886-.82-1.928-1.452-3.134-1.895-1.206-.435-2.535-.665-3.995-.681-1.764-.008-3.249.189-4.471.582-1.214.402-2.207.935-2.97 1.608-.771.681-1.362 1.436-1.788 2.264-.418.829-.722 1.674-.902 2.535-.172.861-.279 1.682-.312 2.445-.033.771-.049 1.435-.041 1.985v1.034h6.448c.008-.574.008-1.165.008-1.756 0-.599.033-1.19.099-1.772.065-.582.213-1.149.435-1.69.262-.681.673-1.157 1.247-1.427.574-.271 1.222-.402 1.952-.394.665-.008 1.239.123 1.731.394.492.262.878.722 1.148 1.362.279.64.418 1.518.418 2.625 0 .861-.074 1.608-.222 2.239-.139.632-.361 1.198-.648 1.706-.287.509-.64 1.009-1.058 1.509-.427.492-.91 1.042-1.468 1.632l-3.347 3.544c-1.403 1.493-2.559 2.863-3.47 4.118-.902 1.247-1.6 2.395-2.084 3.429-.484 1.042-.804 1.985-.944 2.839-.115.714-.213 1.452-.295 2.215-.082.755-.148 1.485-.197 2.182-.049.706-.082 1.321-.099 1.854h20.18zm12.108-26.481c-.057-1.354.041-2.404.295-3.158.254-.755.623-1.28 1.099-1.583.476-.295 1.009-.443 1.608-.427.615-.016 1.173.131 1.674.427.492.304.878.829 1.157 1.583.271.755.377 1.805.32 3.158v16.587c.057 1.37-.049 2.428-.32 3.191-.279.763-.665 1.288-1.157 1.592-.5.304-1.058.451-1.674.435-.599.016-1.132-.131-1.608-.435-.476-.304-.845-.829-1.099-1.592-.254-.763-.353-1.821-.295-3.191v-16.587zm-6.891 16.587c0 1.952.23 3.601.681 4.963.451 1.354 1.107 2.453 1.969 3.29.853.828 1.895 1.436 3.126 1.821 1.222.377 2.617.566 4.167.558 1.567.008 2.97-.18 4.2-.558 1.23-.385 2.281-.993 3.142-1.821.861-.837 1.518-1.936 1.969-3.29.451-1.362.681-3.011.681-4.963v-16.587c0-1.952-.23-3.601-.681-4.955-.451-1.354-1.107-2.445-1.961-3.273-.861-.828-1.903-1.427-3.134-1.805-1.222-.369-2.617-.558-4.167-.55-1.567-.008-2.961.18-4.2.55-1.231.377-2.281.976-3.142 1.805-.861.829-1.518 1.92-1.969 3.273-.451 1.354-.681 3.002-.681 4.955v16.587zm31.501-16.587c-.057-1.354.041-2.404.295-3.158.254-.755.623-1.28 1.099-1.583.476-.295 1.009-.443 1.608-.427.615-.016 1.173.131 1.674.427.492.304.878.829 1.157 1.583.271.755.377 1.805.32 3.158v16.587c.057 1.37-.049 2.428-.32 3.191-.279.763-.665 1.288-1.157 1.592-.5.304-1.058.451-1.674.435-.599.016-1.132-.131-1.608-.435-.476-.304-.845-.829-1.099-1.592-.254-.763-.353-1.821-.295-3.191v-16.587zm-6.891 16.587c0 1.952.23 3.601.681 4.963.451 1.354 1.107 2.453 1.969 3.29.853.828 1.895 1.436 3.126 1.821 1.222.377 2.617.566 4.167.558 1.567.008 2.97-.18 4.2-.558 1.23-.385 2.281-.993 3.142-1.821.861-.837 1.518-1.936 1.969-3.29.451-1.362.681-3.011.681-4.963v-16.587c0-1.952-.23-3.601-.681-4.955-.451-1.354-1.107-2.445-1.961-3.273-.861-.828-1.903-1.427-3.134-1.805-1.222-.369-2.617-.558-4.167-.55-1.567-.008-2.961.18-4.2.55-1.231.377-2.281.976-3.142 1.805-.861.829-1.518 1.92-1.969 3.273-.451 1.354-.681 3.002-.681 4.955v16.587zm28.45-3.002l6.793-14.963h.098v14.963h-6.891zm6.103-23.429l-11.173 23.429v5.414h11.961v7.482h6.891v-7.482h3.15v-5.414h-3.15v-23.429h-7.679z"/></g></svg>