<svg xmlns="http://www.w3.org/2000/svg" fill-rule="evenodd" height="200" width="300" viewBox="0 0 300 133.792"><defs id="defs4"><style id="style6" type="text/css">.str0 {stroke:salmon;stroke-width:2.06909} .fil1 {fill:#1F1A17} .fil6 {fill:#C2C1C1} .fil3 {fill:#4C4C4C} .fil4 {fill:#CCCCCC} .fil2 {fill:#F7F7F7} .fil0 {fill:salmon} .fil5 {fill:white;fill-opacity:0.258824} .fil7 {fill:#1F1A17;fill-opacity:0.431373}</style></defs><g id="Layer_x0020_1" transform="translate(0 -33.448)"><rect id="rect10" class="fil0 str0" height="198.62" width="297.93" stroke="#fa8072" y="1.033" x="1.034" stroke-width="2.069" fill="#fa8072"/><g id="_67202208" fill="#1f1a17"><rect id="_66918048" ry=".813" class="fil1" rx=".813" transform="matrix(.94 .342 .342 -.94 126.776 49.156)" height="11.38" width="1.626"/><rect id="_66929512" ry=".813" class="fil1" rx=".813" transform="matrix(-.94 .342 -.342 -.94 66.535 49.156)" height="11.38" width="1.626"/></g><g id="_66533408" fill="#1f1a17"><rect id="_66733728" ry=".813" class="fil1" rx=".813" transform="matrix(-.94 -.342 -.342 .94 66.629 169.623)" height="11.38" width="1.626"/><rect id="_66483672" ry=".813" class="fil1" rx=".813" transform="matrix(.94 -.342 .342 .94 126.87 169.623)" height="11.38" width="1.626"/></g><rect id="rect18" class="fil2" height="131.76" width="66.852" y="43.918" x="63.231" fill="#f7f7f7"/><rect id="rect20" transform="matrix(.94 -.342 .342 .94 188.51 98.881)" rx=".813" ry=".813" height="11.38" width="1.626" class="fil1" fill="#1f1a17"/><rect id="rect22" class="fil3" height="1.453" width="11.626" y="178.63" x="163.1" fill="#4c4c4c"/><rect id="rect24" class="fil3" height="1.453" width="11.626" y="178.63" x="204.63" fill="#4c4c4c"/><rect id="rect26" class="fil2" height="143.39" width="74.306" y="29.58" x="152.29" fill="#f7f7f7"/><g id="_66909744"><rect id="_63235192" class="fil4" rx=".843" ry=".843" height="8.235" width="81.316" y="170.55" x="148.78" fill="#CCC"/><path id="_67195408" d="M149.6 170.55h79.688c.449 0 .814.379.814.843v4.157h-81.316v-4.157c0-.465.366-.843.814-.843z" fill-opacity=".259" class="fil5" fill="#FFF"/></g><rect id="rect31" rx=".843" ry=".843" height="2.06" width="81.316" y="29.581" x="148.78" class="fil6" fill="#c2c1c1"/><path id="path33" d="M150 179.35c67.364 0 121.99.25 121.99.558 0 .308-54.63.558-121.99.558-67.364 0-121.99-.25-121.99-.558 0-.308 54.63-.558 121.99-.558z" fill-opacity=".431" class="fil7" fill="#1f1a17"/></g></svg>