<?xml version="1.0" encoding="UTF-8" standalone="no"?>
<svg
   xmlns:dc="http://purl.org/dc/elements/1.1/"
   xmlns:cc="http://creativecommons.org/ns#"
   xmlns:rdf="http://www.w3.org/1999/02/22-rdf-syntax-ns#"
   xmlns:svg="http://www.w3.org/2000/svg"
   xmlns="http://www.w3.org/2000/svg"
   xmlns:xlink="http://www.w3.org/1999/xlink"
   xmlns:sodipodi="http://sodipodi.sourceforge.net/DTD/sodipodi-0.dtd"
   xmlns:inkscape="http://www.inkscape.org/namespaces/inkscape"
   height="512"
   width="512"
   viewBox="0 0 512 342.50752"
   id="svg8683"
   version="1.1"
   inkscape:version="0.48.2 r9819"
   sodipodi:docname="banner.svg"
   style="fill-rule:evenodd">
  <metadata
     id="metadata8707">
    <rdf:RDF>
      <cc:Work
         rdf:about="">
        <dc:format>image/svg+xml</dc:format>
        <dc:type
           rdf:resource="http://purl.org/dc/dcmitype/StillImage" />
      </cc:Work>
    </rdf:RDF>
  </metadata>
  <sodipodi:namedview
     pagecolor="#ffffff"
     bordercolor="#666666"
     borderopacity="1"
     objecttolerance="10"
     gridtolerance="10"
     guidetolerance="10"
     inkscape:pageopacity="0"
     inkscape:pageshadow="2"
     inkscape:window-width="1920"
     inkscape:window-height="1005"
     id="namedview8705"
     showgrid="false"
     inkscape:zoom="2.1466667"
     inkscape:cx="138.80949"
     inkscape:cy="319.85917"
     inkscape:window-x="0"
     inkscape:window-y="22"
     inkscape:window-maximized="1"
     inkscape:current-layer="svg8683">
    <inkscape:grid
       type="xygrid"
       id="grid8709"
       empspacing="5"
       visible="true"
       enabled="true"
       snapvisiblegridlinesonly="true"
       spacingx="16px"
       spacingy="16px" />
  </sodipodi:namedview>
  <defs
     id="defs4">
    <linearGradient
       id="linearGradient9333">
      <stop
         style="stop-color:#87cefa;stop-opacity:0;"
         offset="0"
         id="stop9335" />
      <stop
         style="stop-color:#ffffff;stop-opacity:1"
         offset="1"
         id="stop9337" />
    </linearGradient>
    <style
       id="style6"
       type="text/css">.str0 {stroke:salmon;stroke-width:2.06909} .fil1 {fill:#1F1A17} .fil6 {fill:#C2C1C1} .fil3 {fill:#4C4C4C} .fil4 {fill:#CCCCCC} .fil2 {fill:#F7F7F7} .fil0 {fill:salmon} .fil5 {fill:white;fill-opacity:0.258824} .fil7 {fill:#1F1A17;fill-opacity:0.431373}</style>
    <linearGradient
       inkscape:collect="always"
       xlink:href="#linearGradient9333"
       id="linearGradient9339"
       x1="258.54037"
       y1="346.6637"
       x2="258.54037"
       y2="98.837173"
       gradientUnits="userSpaceOnUse"
       gradientTransform="translate(-512.2249,-331.43621)" />
  </defs>
  <path
     sodipodi:type="arc"
     style="fill:#eee8aa;fill-opacity:1;fill-rule:nonzero;stroke:none"
     id="path8711"
     sodipodi:cx="256"
     sodipodi:cy="224"
     sodipodi:rx="256"
     sodipodi:ry="256"
     d="m 512,224 a 256,256 0 1 1 -512,0 256,256 0 1 1 512,0 z"
     transform="matrix(0.9375,0,0,0.9375,16,-38.74624)" />
  <path
     style="fill:#c0c0c0;fill-opacity:1;fill-rule:nonzero;stroke:none"
     d="M 105.65625 443.0625 C 146.79791 476.16909 199.08164 496 256 496 C 312.91836 496 365.20209 476.16909 406.34375 443.0625 L 105.65625 443.0625 z "
     transform="translate(0,-84.74624)"
     id="rect8768" />
  <path
     style="fill:#1f1a17;fill-opacity:0.43137303"
     inkscape:connector-curvature="0"
     class="fil7"
     d="m 253.05927,360.46375 c 67.364,0 121.99,4.00677 121.99,8.94311 0,4.93632 -54.63,8.94308 -121.99,8.94308 -67.364,0 -121.99,-4.00676 -121.99,-8.94308 0,-4.93634 54.63,-8.94311 121.99,-8.94311 z"
     id="path33" />
  <rect
     style="fill:#1f1a17"
     y="236.67253"
     x="183.86801"
     class="fil1"
     width="4.1943617"
     height="29.355371"
     ry="2.0971808"
     rx="2.0971808"
     transform="matrix(0.93973503,-0.3419036,0.3419036,0.93973503,0,0)"
     id="rect20" />
  <rect
     style="fill:#4c4c4c"
     x="188.17834"
     y="365.20355"
     width="29.981489"
     height="3.7470412"
     class="fil3"
     id="rect22" />
  <rect
     style="fill:#4c4c4c"
     x="295.27725"
     y="365.20355"
     width="29.981489"
     height="3.7470412"
     class="fil3"
     id="rect24" />
  <rect
     style="fill:#87cefa"
     x="160.30115"
     y="-19.171177"
     width="191.6226"
     height="369.77856"
     class="fil2"
     id="rect26" />
  <rect
     id="_63235192"
     class="fil4"
     rx="2.1739545"
     ry="2.1739545"
     height="21.236671"
     width="209.70023"
     y="344.36664"
     x="151.24948"
     style="fill:#696969" />
  <path
     id="_67195408"
     d="m 153.36413,344.36662 h 205.50188 c 1.15789,0 2.09917,0.97738 2.09917,2.17395 v 10.7202 H 151.26496 v -10.7202 c 0,-1.19915 0.94386,-2.17395 2.09917,-2.17395 z"
     class="fil5"
     inkscape:connector-curvature="0"
     style="fill:#ffffff;fill-opacity:0.25882401" />
  <rect
     style="fill:#696969"
     class="fil6"
     x="151.24947"
     y="-19.1686"
     width="209.70023"
     height="5.3123913"
     ry="2.1739545"
     rx="2.1739545"
     id="rect31" />
  <g
     style="font-size:35.82363892px;font-style:normal;font-variant:normal;font-weight:bold;font-stretch:normal;line-height:100%;letter-spacing:0px;word-spacing:0px;fill:#fffafa;fill-opacity:1;stroke:none;font-family:Montserrat;-inkscape-font-specification:Sans Bold"
     id="text8782">
    <path
       d="m 195.67271,18.256225 c -0.93143,2e-5 -1.67178,0.226903 -2.22107,0.680649 -0.52542,0.429903 -0.78813,1.015022 -0.78812,1.755358 -1e-5,0.71649 0.32241,1.289668 0.96724,1.719535 0.6687,0.4299 2.18523,0.943371 4.5496,1.540416 2.38823,0.573193 4.23911,1.444901 5.55267,2.615126 1.31351,1.17025 1.97027,2.877842 1.9703,5.12278 -3e-5,2.244953 -0.84785,4.071957 -2.54348,5.481017 -1.67179,1.385181 -3.88091,2.077771 -6.62738,2.077771 -3.96449,0 -7.53491,-1.468768 -10.71126,-4.406308 l 3.33159,-4.083894 c 2.69871,2.364366 5.19442,3.546545 7.48715,3.54654 1.02693,5e-6 1.82699,-0.214937 2.40018,-0.644826 0.59704,-0.45376 0.89557,-1.05082 0.89559,-1.791182 -2e-5,-0.764229 -0.31049,-1.361289 -0.93141,-1.791182 -0.62096,-0.453756 -1.85091,-0.907522 -3.68984,-1.361298 -2.91366,-0.692579 -5.05114,-1.588169 -6.41243,-2.686773 -1.33742,-1.12246 -2.00613,-2.865875 -2.00612,-5.230251 -1e-5,-2.388222 0.84782,-4.227167 2.54347,-5.51684 1.71953,-1.289626 3.85701,-1.934451 6.41244,-1.934477 1.67175,2.6e-5 3.34352,0.286615 5.0153,0.859767 1.67176,0.573203 3.12858,1.385204 4.37049,2.436008 l -2.83007,4.083895 c -2.17332,-1.647868 -4.41826,-2.471811 -6.73484,-2.471831"
       style="fill:#fffafa"
       id="path9342" />
    <path
       d="m 228.05224,38.962288 -2.32854,-5.40937 -10.49632,0 -2.32854,5.40937 -5.94672,0 10.81873,-25.040724 5.40937,0 10.81874,25.040724 -5.94672,0 m -7.55879,-17.589407 -3.15248,7.272199 6.26914,0 -3.11666,-7.272199"
       style="fill:#fffafa"
       id="path9344" />
    <path
       d="m 244.5731,29.863084 6.3766,-15.94152 6.0542,0 -10.06644,25.040724 -4.72872,0 -10.06645,-25.040724 6.0542,0 6.37661,15.94152"
       style="fill:#fffafa"
       id="path9346" />
    <path
       d="m 278.01446,13.921564 0,4.979486 -12.46663,0 0,5.158604 11.2128,0 0,4.764544 -11.2128,0 0,5.194428 12.86069,0 0,4.943662 -18.44918,0 0,-25.040724 18.05512,0"
       style="fill:#fffafa"
       id="path9348" />
    <path
       d="m 195.42194,64.146306 4.44213,-14.401103 5.83926,0 4.4063,14.401103 4.97949,-14.401103 6.05419,0 -8.74096,25.040724 -4.15555,0 -5.48101,-17.410289 -5.4452,17.410289 -4.15554,0 -8.74097,-25.040724 6.0542,0 4.94366,14.401103"
       style="fill:#fffafa"
       id="path9350" />
    <path
       d="m 242.88155,62.140182 c -3e-5,-2.244933 -0.7165,-4.155525 -2.14942,-5.731782 -1.43297,-1.57622 -3.20026,-2.364339 -5.3019,-2.36436 -2.07778,2.1e-5 -3.83314,0.78814 -5.26608,2.36436 -1.43295,1.576257 -2.14942,3.486849 -2.14941,5.731782 -1e-5,2.221076 0.71646,4.119727 2.14941,5.695959 1.43294,1.552363 3.1883,2.328541 5.26608,2.328536 2.10164,5e-6 3.86893,-0.776173 5.3019,-2.328536 1.43292,-1.576232 2.14939,-3.474883 2.14942,-5.695959 m 1.89865,9.206675 c -2.53156,2.459891 -5.64821,3.689835 -9.34997,3.689835 -3.70179,0 -6.81844,-1.229944 -9.34997,-3.689835 -2.53154,-2.483766 -3.79731,-5.564596 -3.79731,-9.242498 0,-3.677878 1.26577,-6.746766 3.79731,-9.206676 2.53153,-2.483747 5.64818,-3.725632 9.34997,-3.725658 3.70176,2.6e-5 6.81841,1.241911 9.34997,3.725658 2.53151,2.45991 3.79728,5.528798 3.79731,9.206676 -3e-5,3.677902 -1.2658,6.758732 -3.79731,9.242498"
       style="fill:#fffafa"
       id="path9352" />
    <path
       d="m 273.69435,58.056287 c -2e-5,4.012261 -1.5882,6.603501 -4.76454,7.77373 l 6.34078,8.95591 -6.87814,0 -5.55266,-7.988672 -3.86896,0 0,7.988672 -5.58848,0 0,-25.040724 9.49326,0 c 3.89282,2.5e-5 6.66318,0.656791 8.31109,1.9703 1.67174,1.313556 2.50763,3.427148 2.50765,6.340784 m -10.63962,3.904777 c 1.91058,1.3e-5 3.21217,-0.310458 3.90478,-0.931415 0.69257,-0.620928 1.03886,-1.600107 1.03888,-2.937538 -2e-5,-1.36128 -0.35825,-2.292694 -1.07471,-2.794244 -0.71649,-0.501511 -1.97031,-0.752276 -3.76148,-0.752296 l -4.19137,0 0,7.415493 4.0839,0"
       style="fill:#fffafa"
       id="path9354" />
    <path
       d="m 279.41046,74.785927 0,-25.040724 5.58849,0 0,20.061238 10.67544,0 0,4.979486 -16.26393,0"
       style="fill:#fffafa"
       id="path9356" />
    <path
       d="m 308.6196,49.745203 c 4.466,2.5e-5 7.89312,1.098616 10.28139,3.295775 2.38821,2.17332 3.58233,5.206385 3.58236,9.099204 -3e-5,3.892844 -1.17026,6.973674 -3.51072,9.242499 -2.31661,2.268832 -5.86315,3.403246 -10.63962,3.403246 l -8.56185,0 0,-25.040724 8.84844,0 m 0.28659,20.097062 c 2.55541,5e-6 4.51376,-0.64482 5.87508,-1.934477 1.38516,-1.289643 2.07775,-3.164411 2.07777,-5.624311 -2e-5,-2.459875 -0.69261,-4.346585 -2.07777,-5.660135 -1.36132,-1.337396 -3.46297,-2.006104 -6.30496,-2.006124 l -3.11666,0 0,15.225047 3.54654,0"
       style="fill:#fffafa"
       id="path9358" />
  </g>
  <path
     style="fill:#3074ad;fill-opacity:1;fill-rule:nonzero;stroke:none"
     d="M 324.78125 288.875 L 256.21875 427.40625 L 351.9375 427.90625 L 351.9375 347.3125 L 324.78125 288.875 z "
     transform="translate(0,-84.74624)"
     id="path9314" />
  <path
     id="path9316"
     d="m 324.77265,204.12091 -68.56903,138.54864 48.75872,0.24587 20.29945,-137.71267 -0.48914,-1.08184 z"
     style="opacity:0.45689655;fill:#ffffff;fill-opacity:1;fill-rule:nonzero;stroke:none"
     inkscape:connector-curvature="0" />
  <g
     id="g9308"
     transform="translate(345.65218,30.279503)">
    <path
       sodipodi:nodetypes="cccc"
       inkscape:connector-curvature="0"
       id="rect8790"
       d="M -181.20997,314.05867 -84.835001,137.96939 6.0734694,314.94399 z"
       style="fill:#4682b4;fill-opacity:1;fill-rule:nonzero;stroke:none" />
    <path
       id="rect8788"
       transform="translate(0,-84.74624)"
       d="m -84.84375,222.71875 -96.375,176.09375 68.53125,0.3125 28.53125,-175.03125 -0.6875,-1.375 z"
       style="opacity:0.66379311;fill:#ffe4e1;fill-opacity:1;fill-rule:nonzero;stroke:none"
       inkscape:connector-curvature="0" />
  </g>
</svg>
