<svg xmlns="http://www.w3.org/2000/svg" width="1070.158" height="397.497"><g transform="translate(135.924 -660.656)"><g transform="translate(-537.819 24.633)"><rect y="954.671" x="645.698" height="38.612" width="626.841" fill="#c1c1c1"/><rect y="801.685" x="668.698" height="161.513" width="596.605" fill="#d05454"/><rect width="4.79" height="41.739" x="873.1" y="920.987" opacity=".136"/><rect transform="translate(0 318.362)" y="445.247" x="677.406" height="41.739" width="565.873" fill="#e74c4c"/><rect width="4.79" height="41.739" x="847.783" y="920.987" fill="#808080"/><rect transform="translate(0 318.362)" y="600.572" x="821.782" height="3.421" width="150.535" fill="#8b4513"/><rect width="215.079" height="83.844" x="784.109" y="832.874" fill="#d3d3d3"/><rect y="839.254" x="897.117" height="71.085" width="93.869" fill="#f5f5f5"/><rect y="663.363" x="662.698" height="122.79" width="592.605" fill="#393939"/><path d="M983.962 662.341l36.645.656 181.617 134.825-218.959 2.053z" opacity=".192"/><path d="M684.248 663.709l35.958.656 178.211 134.825-214.854 2.053z" opacity=".192"/><rect y="636.023" x="654.698" height="346.313" width="32.211" fill="#ff6161"/><rect width="32.211" height="346.313" x="1233.092" y="636.023" fill="#ff6161"/><rect y="636.023" x="956.041" height="346.313" width="32.211" fill="#ff6161"/><rect y="832.874" x="693.886" height="130.323" width="80.199" fill="#d3d3d3"/><rect y="837.431" x="700.265" height="125.766" width="67.44" fill="#5b5b5b"/><rect width="96.603" height="71.085" x="789.578" y="839.254" fill="#f5f5f5"/><rect y="832.874" x="1010.124" height="130.323" width="112.096" fill="#393939"/><rect y="838.342" x="1014.681" height="120.298" width="48.302" fill="#d3d3d3"/><rect width="48.302" height="120.298" x="1069.362" y="838.342" fill="#d3d3d3"/><rect width="48.302" height="74.731" x="1014.681" y="883.91" fill="#c0c0c0"/><rect y="883.91" x="1069.362" height="74.731" width="48.302" fill="#c0c0c0"/><rect y="992.201" x="644.12" height="4.557" width="628.988" fill="#948b8b"/><rect transform="translate(0 318.362)" y="603.993" x="832.046" height="49.266" width="4.79" fill="#808080"/><rect y="799.154" x="673.836" height="20.961" width="572.328" fill="#e8e59c"/></g><g><path d="M5.076 902.397c0 21.267-21.266 38.508-47.5 38.508s-47.5-17.24-47.5-38.508c0-21.267 21.266-38.508 47.5-38.508s47.5 17.24 47.5 38.508z" fill="#a6a25a"/><path d="M87.076 893.397c0 21.267-21.266 38.508-47.5 38.508s-47.5-17.24-47.5-38.508c0-21.267 21.266-38.508 47.5-38.508s47.5 17.24 47.5 38.508z" fill="#a6a25a"/><path d="M-52.924 926.784l39 75-22 53h35l5-53 33-88-36 67-16-45-9 17 8 22z" fill="#76bd76"/><path d="M-61.924 887.164c0 16.288-14.327 29.492-32 29.492-17.673 0-32-13.204-32-29.492s14.327-29.492 32-29.492c17.673 0 32 13.204 32 29.492z" fill="#bdb76b"/><path d="M-4.924 871.634c0 25.4-22.386 45.99-50 45.99s-50-20.59-50-45.99c0-25.4 22.386-45.99 50-45.99s50 20.59 50 45.99z" fill="#bdb76b"/><path d="M-71.924 926.164c0 16.288-14.327 29.492-32 29.492-17.673 0-32-13.204-32-29.492s14.327-29.492 32-29.492c17.673 0 32 13.204 32 29.492z" fill="#bdb76b"/><path d="M32.076 888.397c0 21.267-21.266 38.508-47.5 38.508s-47.5-17.24-47.5-38.508c0-21.267 21.266-38.508 47.5-38.508s47.5 17.24 47.5 38.508z" fill="#bdb76b"/><path d="M42.076 841.397c0 21.267-21.266 38.508-47.5 38.508s-47.5-17.24-47.5-38.508c0-21.267 21.266-38.508 47.5-38.508s47.5 17.24 47.5 38.508z" fill="#bdb76b"/><path d="M50.076 899.276c0 17.397-15.446 31.5-34.5 31.5-19.054 0-34.5-14.103-34.5-31.5s15.446-31.5 34.5-31.5c19.054 0 34.5 14.103 34.5 31.5z" fill="#a6a25a"/><path d="M-20.924 950.164c0 16.288-16.789 29.492-37.5 29.492s-37.5-13.204-37.5-29.492 16.789-29.492 37.5-29.492 37.5 13.204 37.5 29.492z" fill="#bdb76b"/><path d="M25.748 936.222l-25.031 46.563-16-45-5.188 9.781 18.219 47.219-15.813 62h16.781l5-53 24.906-66.406-2.875-1.156z" opacity=".089"/><path d="M61.076 927.397c0 21.267-21.266 38.508-47.5 38.508s-47.5-17.24-47.5-38.508c0-21.267 21.266-38.508 47.5-38.508s47.5 17.24 47.5 38.508z" fill="#bdb76b"/><path d="M86.076 875.397c0 21.267-21.266 38.508-47.5 38.508s-47.5-17.24-47.5-38.508c0-21.267 21.266-38.508 47.5-38.508s47.5 17.24 47.5 38.508z" fill="#bdb76b"/></g><g><path d="M852.234 903.764c0 21.267-21.266 38.508-47.5 38.508s-47.5-17.24-47.5-38.508c0-21.267 21.266-38.508 47.5-38.508s47.5 17.24 47.5 38.508z" fill="#a6a25a"/><path d="M934.234 894.764c0 21.267-21.266 38.508-47.5 38.508s-47.5-17.24-47.5-38.508c0-21.267 21.266-38.508 47.5-38.508s47.5 17.24 47.5 38.508z" fill="#a6a25a"/><path d="M794.234 928.153l39 75-22 53h35l5-53 33-88-36 67-16-45-9 17 8 22z" fill="#76bd76"/><path d="M785.234 888.533c0 16.288-14.327 29.492-32 29.492-17.673 0-32-13.204-32-29.492s14.327-29.492 32-29.492c17.673 0 32 13.204 32 29.492z" fill="#bdb76b"/><path d="M842.234 873.003c0 25.4-22.386 45.99-50 45.99s-50-20.59-50-45.99c0-25.4 22.386-45.99 50-45.99s50 20.59 50 45.99z" fill="#bdb76b"/><path d="M775.234 927.533c0 16.288-14.327 29.492-32 29.492-17.673 0-32-13.204-32-29.492s14.327-29.492 32-29.492c17.673 0 32 13.204 32 29.492z" fill="#bdb76b"/><path d="M879.234 889.764c0 21.267-21.266 38.508-47.5 38.508s-47.5-17.24-47.5-38.508c0-21.267 21.266-38.508 47.5-38.508s47.5 17.24 47.5 38.508z" fill="#bdb76b"/><path d="M889.234 842.764c0 21.267-21.266 38.508-47.5 38.508s-47.5-17.24-47.5-38.508c0-21.267 21.266-38.508 47.5-38.508s47.5 17.24 47.5 38.508z" fill="#bdb76b"/><path d="M897.234 900.646c0 17.397-15.446 31.5-34.5 31.5-19.054 0-34.5-14.103-34.5-31.5s15.446-31.5 34.5-31.5c19.054 0 34.5 14.103 34.5 31.5z" fill="#a6a25a"/><path d="M826.234 951.533c0 16.288-16.789 29.492-37.5 29.492s-37.5-13.204-37.5-29.492 16.789-29.492 37.5-29.492 37.5 13.204 37.5 29.492z" fill="#bdb76b"/><path d="M872.906 937.59l-25.031 46.563-16-45-5.188 9.781 18.219 47.219-15.813 62h16.781l5-53 24.906-66.406-2.875-1.156z" opacity=".089"/><path d="M908.234 928.764c0 21.267-21.266 38.508-47.5 38.508s-47.5-17.24-47.5-38.508c0-21.267 21.266-38.508 47.5-38.508s47.5 17.24 47.5 38.508z" fill="#bdb76b"/><path d="M933.234 876.764c0 21.267-21.266 38.508-47.5 38.508s-47.5-17.24-47.5-38.508c0-21.267 21.266-38.508 47.5-38.508s47.5 17.24 47.5 38.508z" fill="#bdb76b"/></g></g></svg>