<svg xmlns="http://www.w3.org/2000/svg" height="200" width="300"><g transform="translate(0 -852.362)"><rect height="200" width="300" y="852.36" fill="#00bfff"/><path fill="#696969" d="M138 982.362v17.69h-42.344l42.344 8.34v43.97h26v-43.88l42.34-8.43h-42.34v-17.69h-26z"/><rect transform="matrix(1 0 .56 .829 0 0)" height="8.213" width="2.652" y="1044.9" x="-518.6"/><path opacity=".356" d="M138 1000.4l-3.889-3.586 29.889 38.93v-26.477l48.79-10.281z"/><rect transform="translate(0 852.362)" height="128" width="260" y="20" x="21" fill="#F00"/><path d="M141.5 990.75c3.998.019 7.306-.757 9.924-2.328 2.618-1.57 3.975-4.047 4.07-7.429-.166-3.827-1.479-6.362-3.938-7.603-2.459-1.242-5.068-1.978-7.826-2.209-1.659-.194-3.038-.447-4.14-.76-1.101-.312-1.673-.858-1.714-1.638.028-.72.335-1.245.92-1.575.585-.33 1.282-.492 2.091-.488.887-.025 1.663.137 2.328.488.664.351 1.078 1.043 1.24 2.077h9.924c-.195-2.806-1.422-4.971-3.68-6.495s-5.547-2.295-9.868-2.314c-3.588.013-6.615.796-9.081 2.349-2.466 1.553-3.751 3.799-3.854 6.739.13 3.458 1.25 5.783 3.359 6.976s4.428 1.915 6.955 2.167c1.9.23 3.522.537 4.864.92 1.343.383 2.044 1.136 2.105 2.258-.022.858-.368 1.483-1.038 1.875-.67.391-1.532.584-2.586.578-1.339-.009-2.368-.339-3.087-.99-.719-.65-1.121-1.566-1.206-2.746h-10.091c.095 3.277 1.438 5.783 4.028 7.52 2.59 1.736 6.024 2.612 10.3 2.627z" fill="#fffafa"/><path d="M158.03 989.81h10.537v-15.332c.001-1.567.333-2.852.997-3.854.663-1.002 1.651-1.52 2.962-1.554 1.322.019 2.26.455 2.816 1.31.555.855.825 2.016.808 3.485v15.945h10.537v-15.332c.001-1.567.333-2.852.997-3.854.663-1.002 1.651-1.52 2.962-1.554 1.322.019 2.26.455 2.816 1.31.555.855.825 2.016.808 3.485v15.945h10.537v-17.896c.02-3.33-.772-6.05-2.376-8.161-1.604-2.11-4.138-3.2-7.603-3.268-1.845-.03-3.55.323-5.115 1.059-1.566.736-2.964 2.037-4.195 3.903h-.167c-.734-1.573-1.789-2.79-3.164-3.652-1.375-.862-3.015-1.298-4.92-1.31-2.129.008-3.92.452-5.373 1.331-1.453.879-2.673 2.145-3.659 3.798h-.167v-4.237h-10.035z" fill="#fffafa"/><path d="M208.34 989.81h10.537v-28.434h-10.537zm0-31.89h10.537v-7.973h-10.537z" fill="#fffafa"/><path d="M222.71 989.81h10.816v-39.863h-10.816z" fill="#fffafa"/><path d="M251.69 990.59c1.8.005 3.44-.186 4.92-.571s2.869-.994 4.168-1.826c1.407-.906 2.58-1.951 3.519-3.136.94-1.185 1.569-2.425 1.889-3.721h-10.203c-.79 1.403-2.109 2.109-3.958 2.119-1.584-.015-2.834-.487-3.749-1.415s-1.524-2.222-1.826-3.882h20.294c.058-2.843-.323-5.464-1.143-7.861-.82-2.397-2.093-4.404-3.819-6.021-1.304-1.209-2.821-2.15-4.551-2.822-1.73-.672-3.706-1.014-5.931-1.024-4.559.093-8.208 1.538-10.948 4.335-2.74 2.797-4.145 6.388-4.216 10.774.066 4.432 1.495 8.028 4.286 10.788 2.791 2.76 6.547 4.181 11.269 4.265zm-.167-23.081c1.267.013 2.315.461 3.143 1.345.828.884 1.36 2.127 1.596 3.728h-9.812c.274-1.577.827-2.813 1.659-3.708.832-.894 1.97-1.35 3.415-1.366z" fill="#fffafa"/><rect height="11.5" width="23" y="867.36" x="56"/><rect height="11.5" width="23" y="866.36" x="193.5"/><path opacity=".195" d="M55.97 878.86l90.562 121.5h23l-90.562-121.5h-23z"/><path opacity=".195" d="M193 877.862l87.84 117.84v-30.84l-64.84-87h-23z"/><path d="M56.038 867.1l17.501.354s-17.689 10.96-17.501 11.314z" fill="#696969"/><rect transform="translate(0 852.362)" height="6.541" width="14.672" y="17.566" x="60.458" fill="#696969"/><path d="M60.458 869.928l-.089 6.63 11.579-6.63z" fill="#808080"/><path fill="#dcdcdc" d="M59.224 865.87v7.782h.969v-6.813h14.844v6.813h.969v-7.688h-.094v-.094h-16.688z"/><g transform="translate(116.5 81.747)"><rect transform="matrix(1 0 .56 .829 0 0)" height="8.213" width="2.652" y="945.97" x="-442.22"/><rect height="11.5" width="23" y="785.36" x="77"/><path fill="#696969" d="M77.038 785.1l17.501.354s-17.689 10.96-17.501 11.314z"/><rect height="6.541" width="14.672" y="787.93" x="81.458" fill="#696969"/><path fill="#808080" d="M81.458 787.93l-.088 6.629 11.579-6.629z"/><path fill="#dcdcdc" d="M80.224 783.87v7.782h.969v-6.813h14.844v6.813h.969v-7.688h-.094v-.094h-16.688z"/></g></g></svg>