<svg xmlns="http://www.w3.org/2000/svg" width="300" height="200"><g transform="translate(0 -852.362)"><rect width="300" height="200" y="852.362" fill="#00bfff"/><path d="M138 982.362v17.688h-42.344l42.344 8.344v43.969h26v-43.875l42.344-8.438h-42.344v-17.688h-26z" fill="#696969"/><rect y="1044.921" x="-518.598" height="8.213" width="2.652" transform="matrix(1 0 .56 .829 0 0)"/><path d="M138 1000.362l-3.889-3.586 29.889 38.93v-26.477l48.79-10.281z" opacity=".356"/><rect width="260" height="128" x="21" y="20" transform="translate(0 852.362)" fill="#f00"/><path style="line-height:125%;-inkscape-font-specification:Haas Grot Disp 95 Black" d="M141.501 990.754c3.998.019 7.306-.757 9.924-2.328 2.618-1.57 3.975-4.047 4.07-7.429-.166-3.827-1.479-6.362-3.938-7.603-2.459-1.242-5.068-1.978-7.826-2.209-1.659-.194-3.039-.447-4.14-.76-1.101-.312-1.673-.858-1.714-1.638.028-.72.335-1.245.92-1.575.585-.33 1.282-.492 2.091-.488.887-.025 1.663.137 2.328.488.664.351 1.078 1.043 1.24 2.077h9.924c-.195-2.806-1.422-4.971-3.68-6.495s-5.547-2.295-9.868-2.314c-3.588.013-6.615.796-9.081 2.349-2.466 1.553-3.751 3.799-3.854 6.739.13 3.458 1.25 5.783 3.359 6.976 2.109 1.193 4.428 1.915 6.955 2.167 1.9.23 3.522.537 4.864.92 1.343.383 2.044 1.136 2.105 2.258-.022.858-.368 1.483-1.038 1.875-.67.391-1.532.584-2.586.578-1.339-.009-2.368-.339-3.087-.99-.719-.65-1.121-1.566-1.206-2.746h-10.091c.095 3.277 1.438 5.783 4.028 7.52 2.59 1.736 6.024 2.612 10.3 2.627z" font-size="55.753" font-weight="bold" letter-spacing="0" word-spacing="0" fill="#fffafa" font-family="Haas Grot Disp 95 Black"/><path style="line-height:125%;-inkscape-font-specification:Haas Grot Disp 95 Black" d="M158.029 989.806h10.537v-15.332c.001-1.567.333-2.851.997-3.854.663-1.002 1.65-1.52 2.962-1.554 1.322.019 2.26.455 2.815 1.31.555.855.825 2.016.808 3.485v15.945h10.537v-15.332c.001-1.567.333-2.851.997-3.854.663-1.002 1.65-1.52 2.962-1.554 1.322.019 2.26.455 2.815 1.31.555.855.825 2.016.808 3.485v15.945h10.537v-17.896c.02-3.33-.772-6.05-2.376-8.161-1.604-2.11-4.138-3.2-7.603-3.268-1.845-.03-3.55.323-5.115 1.059-1.566.736-2.964 2.037-4.195 3.903h-.167c-.734-1.573-1.789-2.79-3.164-3.652-1.375-.862-3.015-1.299-4.92-1.31-2.129.008-3.92.452-5.373 1.331-1.453.879-2.673 2.145-3.659 3.798h-.167v-4.237h-10.035z" font-size="55.753" font-weight="bold" letter-spacing="0" word-spacing="0" fill="#fffafa" font-family="Haas Grot Disp 95 Black"/><path style="line-height:125%;-inkscape-font-specification:Haas Grot Disp 95 Black" d="M208.337 989.806h10.537v-28.434h-10.537zm0-31.89h10.537v-7.973h-10.537z" font-size="55.753" font-weight="bold" letter-spacing="0" word-spacing="0" fill="#fffafa" font-family="Haas Grot Disp 95 Black"/><path style="line-height:125%;-inkscape-font-specification:Haas Grot Disp 95 Black" d="M222.711 989.806h10.816v-39.863h-10.816z" font-size="55.753" font-weight="bold" letter-spacing="0" word-spacing="0" fill="#fffafa" font-family="Haas Grot Disp 95 Black"/><path style="line-height:125%;-inkscape-font-specification:Haas Grot Disp 95 Black" d="M251.687 990.586c1.8.005 3.44-.186 4.92-.571 1.48-.386 2.869-.994 4.167-1.826 1.407-.906 2.58-1.951 3.519-3.136.94-1.185 1.569-2.425 1.889-3.721h-10.203c-.79 1.403-2.109 2.109-3.958 2.119-1.584-.015-2.834-.487-3.749-1.415s-1.524-2.222-1.826-3.882h20.294c.058-2.843-.323-5.464-1.143-7.861-.82-2.397-2.093-4.404-3.819-6.021-1.304-1.209-2.821-2.15-4.551-2.822-1.73-.672-3.706-1.014-5.931-1.024-4.559.093-8.208 1.538-10.948 4.335-2.74 2.797-4.145 6.388-4.216 10.774.066 4.432 1.495 8.028 4.286 10.788 2.791 2.76 6.547 4.181 11.269 4.265zm-.167-23.081c1.267.013 2.315.461 3.143 1.345.828.884 1.36 2.127 1.596 3.728h-9.812c.274-1.577.827-2.813 1.659-3.708.832-.894 1.97-1.35 3.415-1.366z" font-size="55.753" font-weight="bold" letter-spacing="0" word-spacing="0" fill="#fffafa" font-family="Haas Grot Disp 95 Black"/><rect width="23" height="11.5" x="56" y="867.362"/><rect y="866.362" x="193.5" height="11.5" width="23"/><path d="M55.97 878.862l90.563 121.5h23l-90.563-121.5h-23z" opacity=".195"/><path d="M193 877.862l87.844 117.844v-30.844l-64.844-87h-23z" opacity=".195"/><path d="M56.038 867.1l17.501.354s-17.689 10.96-17.501 11.314z" fill="#696969"/><rect width="14.672" height="6.541" x="60.458" y="17.566" transform="translate(0 852.362)" fill="#696969"/><path d="M60.458 869.929l-.088 6.629 11.579-6.629z" fill="#808080"/><path d="M59.224 865.868v7.782h.969v-6.813h14.844v6.813h.969v-7.688h-.094v-.094h-16.688z" fill="#dcdcdc"/><g transform="translate(116.5 81.747)"><rect y="945.974" x="-442.221" height="8.213" width="2.652" transform="matrix(1 0 .56 .829 0 0)"/><rect width="23" height="11.5" x="77" y="785.362"/><path d="M77.038 785.1l17.501.354s-17.689 10.96-17.501 11.314z" fill="#696969"/><rect width="14.672" height="6.541" x="81.458" y="787.929" fill="#696969"/><path d="M81.458 787.929l-.088 6.629 11.579-6.629z" fill="#808080"/><path d="M80.224 783.868v7.782h.969v-6.813h14.844v6.813h.969v-7.688h-.094v-.094h-16.688z" fill="#dcdcdc"/></g></g></svg>