<svg xmlns="http://www.w3.org/2000/svg" width="300" height="200"><g transform="translate(0 -852.362)"><rect width="300.52" height="200.818" x="-.707" y="-.111" transform="translate(0 852.362)" fill="#66cdaa"/><rect width="250.375" height="200.468" x="49.731" y="851.894" fill="#ffd0a6"/><rect width="251.375" height="9.899" x="48.731" y="886.894" opacity=".226"/><path d="M102.219 901.362l-.563.563.125 12.656h15.25v41.25l13.531 13.531h238.031l-65.063-64.125-34.813 10.063-11.281-13.25-17.375 13.906-16.469-14.406-14.313 19.688-14.219-15.344-31 8.906-15.563-13.438h-46.281z" opacity=".208"/><rect width="300" height="200" x="9.192" y="1077.222" fill="#ffdab9"/><path d="M28.434 1214.172l25.751-25.497 14.545-40.41 16.457-22.55 40.795 28.838 5.207-20.12 43.002.969 13.876-1.695 30.627 21.718 13.501-21.96 27.002 1.453 19.626 4.722 30.209 24.515.586 114.017c-68.689-.11-132.379-1.094-201.069-1.114z" opacity=".38"/><path d="M28.912 1214.295h25.252l4.249-12.747h29.38l2.238 10.739 2.011 2.009h26.951l-32.172-86.803-2.013-1.945-23.846 1.945-34.015 84.76zm40.913-47.226c.774-2.324 1.502-4.717 2.185-7.178.683-2.461 1.047-3.791 1.093-3.991h.243c.053.2.432 1.53 1.138 3.991.706 2.461 1.419 4.854 2.14 7.178l5.463 16.997h-17.968z" style="line-height:125%;-inkscape-font-specification:Haas Grot Disp 95 Black" font-size="121.405" letter-spacing="0" word-spacing="0" font-family="Haas Grot Disp 95 Black"/><path d="M123.383 1214.295h45.769c4.479 0 8.45-.455 11.913-1.366 3.462-.91 6.492-2.276 9.09-4.097 3.124-2.193 5.557-5.031 7.299-8.513 1.743-3.483 2.628-7.565 2.656-12.246-.03-4.983-1.336-9.313-3.915-12.99-2.58-3.677-6.252-6.308-11.017-7.891v-.364c3.637-1.558 6.348-3.693 8.134-6.404 1.786-2.711 2.676-6.121 2.671-10.228-.018-3.596-.741-6.844-2.17-9.743-1.429-2.898-3.458-5.357-6.085-7.375-2.297-1.773-5.048-3.144-8.255-4.112-3.207-.969-6.93-1.459-11.169-1.472h-44.919l-1.98 84.76zm24.888-19.91v-16.875h17.968c2.673 0 4.884.698 6.632 2.094 1.748 1.396 2.653 3.49 2.716 6.283-.043 2.638-.898 4.707-2.565 6.207-1.667 1.5-3.887 2.264-6.662 2.292zm0-33.143v-14.083h15.661c2.468.018 4.451.65 5.949 1.897 1.497 1.247 2.266 3.002 2.307 5.266-.035 2.307-.784 4.037-2.246 5.19-1.462 1.153-3.425 1.73-5.888 1.73z" style="line-height:125%;-inkscape-font-specification:Haas Grot Disp 95 Black" font-size="121.405" letter-spacing="0" word-spacing="0" font-family="Haas Grot Disp 95 Black"/><path d="M247.551 1216.116c6.28.018 11.809-.807 16.587-2.474 4.778-1.667 9.001-4.282 12.671-7.846 3.134-3.005 5.698-6.556 7.694-10.653 1.995-4.097 3.194-8.559 3.597-13.385l-2.034-1.853-23.582 1.853c-.445 3.966-1.953 7.203-4.522 9.712-2.57 2.509-6.08 3.804-10.532 3.885-5.693-.129-10.119-2.421-13.278-6.874-3.159-4.454-4.763-10.296-4.811-17.528-.008-7.231 1.464-13.073 4.416-17.528 2.952-4.454 7.428-6.745 13.43-6.874 4.181.111 7.565 1.406 10.152 3.885 2.234 2.14 1.976 4.09 2.547 7 .09.46 1.821 1.888 1.869 1.984h25.373c-.554-5.569-2.117-10.668-4.689-15.297-2.572-4.628-6.108-8.513-10.608-11.655-3.182-2.195-6.834-3.875-10.957-5.038-4.123-1.163-8.564-1.75-13.324-1.76-13.251.263-23.838 4.563-31.762 12.899-7.924 8.336-11.986 19.131-12.186 32.384.177 13.248 4.193 24.023 12.049 32.324 7.856 8.301 18.489 12.58 31.899 12.838z" style="line-height:125%;-inkscape-font-specification:Haas Grot Disp 95 Black" font-size="121.405" letter-spacing="0" word-spacing="0" font-family="Haas Grot Disp 95 Black"/><g font-size="121.405" letter-spacing="0" word-spacing="0" fill="#dcdcdc" font-family="Haas Grot Disp 95 Black"><path d="M26.912 1212.295h25.252l4.249-12.747h29.38l4.249 12.747h26.951l-32.172-86.803h-25.859zm40.913-47.226c.774-2.324 1.502-4.717 2.185-7.178.683-2.461 1.047-3.791 1.093-3.991h.243c.053.2.432 1.53 1.138 3.991.706 2.461 1.419 4.854 2.14 7.178l5.463 16.996h-17.968z" style="line-height:125%;-inkscape-font-specification:Haas Grot Disp 95 Black"/><path d="M121.383 1212.295h45.769c4.479 0 8.45-.455 11.913-1.366 3.462-.911 6.492-2.276 9.09-4.097 3.124-2.193 5.557-5.031 7.299-8.513 1.743-3.483 2.628-7.565 2.656-12.247-.03-4.983-1.336-9.313-3.915-12.99-2.58-3.677-6.252-6.308-11.017-7.891v-.364c3.637-1.558 6.348-3.693 8.134-6.404 1.786-2.711 2.676-6.121 2.671-10.228-.018-3.596-.741-6.844-2.17-9.743-1.429-2.898-3.458-5.357-6.085-7.375-2.297-1.773-5.048-3.144-8.255-4.113-3.207-.969-6.93-1.459-11.169-1.472h-44.919zm24.888-19.91v-16.875h17.968c2.673 0 4.884.698 6.632 2.094 1.748 1.396 2.653 3.49 2.716 6.283-.043 2.638-.898 4.707-2.565 6.207-1.667 1.5-3.887 2.264-6.662 2.291zm0-33.143v-14.083h15.661c2.468.018 4.451.65 5.949 1.897 1.497 1.247 2.266 3.002 2.307 5.266-.035 2.307-.784 4.037-2.246 5.19-1.462 1.153-3.425 1.73-5.888 1.73z" style="line-height:125%;-inkscape-font-specification:Haas Grot Disp 95 Black"/><path d="M245.551 1214.116c6.28.018 11.809-.807 16.587-2.474 4.778-1.667 9.001-4.282 12.671-7.846 3.134-3.005 5.698-6.556 7.694-10.653 1.995-4.097 3.194-8.559 3.597-13.385h-25.616c-.445 3.966-1.953 7.203-4.522 9.712-2.57 2.509-6.08 3.804-10.532 3.885-5.693-.129-10.119-2.42-13.278-6.874-3.159-4.454-4.763-10.296-4.811-17.528-.008-7.231 1.464-13.074 4.416-17.528 2.952-4.454 7.428-6.745 13.43-6.874 4.181.111 7.565 1.406 10.152 3.885 2.587 2.479 4.059 5.473 4.416 8.984h25.373c-.554-5.569-2.117-10.668-4.689-15.297-2.572-4.628-6.108-8.513-10.608-11.655-3.182-2.195-6.834-3.875-10.957-5.038-4.123-1.163-8.564-1.75-13.324-1.76-13.251.263-23.838 4.563-31.762 12.899-7.924 8.336-11.986 19.131-12.186 32.384.177 13.248 4.193 24.023 12.049 32.324 7.856 8.301 18.489 12.58 31.899 12.838z" style="line-height:125%;-inkscape-font-specification:Haas Grot Disp 95 Black"/></g><rect width="276.424" height="31.113" x="22.64" y="961.781" fill="#ffdab9"/><rect y="992.894" x="49.731" height="9.899" width="252.375" opacity=".226"/><g style="line-height:125%;-inkscape-font-specification:Haas Grot Disp 95 Black" font-size="75" letter-spacing="0" word-spacing="0" fill="#ffe4e1" font-family="Haas Grot Disp 95 Black"><path d="M102.46 914.429h15.15v40.274h15.675v-40.274h15.375v-13.35h-46.199z"/><path d="M178.096 955.978c8.422-.159 15.053-2.803 19.893-7.931 4.841-5.128 7.309-11.784 7.406-19.968-.097-8.187-2.566-14.856-7.406-20.006-4.841-5.15-11.472-7.806-19.893-7.969-8.416.163-15.022 2.819-19.818 7.969-4.797 5.15-7.241 11.819-7.331 20.006.091 8.184 2.534 14.84 7.331 19.968 4.797 5.128 11.403 7.772 19.818 7.931zm.075-12.525c-3.753-.092-6.578-1.558-8.475-4.397-1.897-2.839-2.847-6.498-2.85-10.978.003-4.483.953-8.155 2.85-11.015 1.897-2.861 4.722-4.339 8.475-4.434 3.753.095 6.578 1.573 8.475 4.434 1.897 2.861 2.847 6.533 2.85 11.015-.003 4.48-.953 8.139-2.85 10.978-1.897 2.839-4.722 4.305-8.475 4.397z"/><path d="M209.735 954.703h15.675v-17.325l3.45-3.9 13.65 21.225h18.225l-21.15-32.025 20.025-21.6h-18l-16.2 17.55v-17.55h-15.675z"/><path d="M288.691 955.978c8.422-.159 15.053-2.803 19.893-7.931 4.841-5.128 7.309-11.784 7.406-19.968-.097-8.187-2.566-14.856-7.406-20.006-4.841-5.15-11.472-7.806-19.893-7.969-8.416.163-15.022 2.819-19.819 7.969-4.797 5.15-7.241 11.819-7.331 20.006.091 8.184 2.534 14.84 7.331 19.968 4.797 5.128 11.403 7.772 19.819 7.931zm.075-12.525c-3.753-.092-6.578-1.558-8.475-4.397-1.897-2.839-2.847-6.498-2.85-10.978.003-4.483.953-8.155 2.85-11.015 1.897-2.861 4.722-4.339 8.475-4.434 3.753.095 6.578 1.573 8.475 4.434 1.897 2.861 2.847 6.533 2.85 11.015-.003 4.48-.953 8.139-2.85 10.978-1.897 2.839-4.722 4.305-8.475 4.397z"/></g><rect y="851.281" x="23.89" height="37.113" width="276.174" fill="#ffdab9"/><rect width="108" height="241" x="410" y="827.362" opacity=".208" fill="#87cefa"/></g></svg>