<svg xmlns="http://www.w3.org/2000/svg" height="200" width="300"><g transform="translate(0 -852.362)"><rect transform="translate(0 852.362)" height="200.82" width="300.52" y="-.111" x="-.707" fill="#66cdaa"/><rect height="200.47" width="250.37" y="851.89" x="49.731" fill="#ffd0a6"/><rect opacity=".226" height="9.899" width="251.37" y="886.89" x="48.731"/><path opacity=".208" d="M102.22 901.36l-.563.563.125 12.656h15.25v41.25l13.531 13.531h238.03l-65.062-64.125-34.812 10.062-11.281-13.25-17.375 13.906-16.469-14.406-14.312 19.688-14.219-15.344-31 8.906-15.562-13.438h-46.281z"/><rect height="31.113" width="276.42" y="961.78" x="22.64" fill="#ffdab9"/><rect opacity=".226" height="9.899" width="252.37" y="992.89" x="49.731"/><g font-size="250" font-family="Haas Grot Disp 95 Black" fill="#ffe4e1" letter-spacing="0" word-spacing="0"><path d="M102.46 914.43h15.15v40.274h15.675v-40.274h15.375v-13.35h-46.199z"/><path d="M178.1 955.98c8.422-.159 15.053-2.803 19.894-7.931 4.84-5.128 7.309-11.784 7.406-19.968-.097-8.187-2.566-14.856-7.406-20.006-4.841-5.15-11.472-7.806-19.894-7.969-8.415.163-15.022 2.819-19.818 7.969-4.797 5.15-7.24 11.819-7.331 20.006.091 8.184 2.534 14.84 7.331 19.968 4.797 5.128 11.403 7.772 19.818 7.931zm.075-12.525c-3.753-.092-6.578-1.558-8.475-4.397-1.897-2.839-2.847-6.498-2.85-10.978.003-4.483.953-8.155 2.85-11.015 1.897-2.861 4.722-4.339 8.475-4.434 3.753.095 6.578 1.573 8.475 4.434 1.897 2.861 2.847 6.533 2.85 11.015-.003 4.48-.953 8.139-2.85 10.978-1.897 2.839-4.722 4.305-8.475 4.397z"/><path d="M209.74 954.7h15.675v-17.325l3.45-3.9 13.65 21.225h18.225l-21.15-32.025 20.025-21.6h-18l-16.2 17.55v-17.55h-15.675z"/><path d="M288.69 955.98c8.422-.159 15.053-2.803 19.893-7.931s7.309-11.784 7.406-19.968c-.097-8.187-2.566-14.856-7.406-20.006-4.841-5.15-11.472-7.806-19.893-7.969-8.415.163-15.022 2.819-19.818 7.969-4.797 5.15-7.24 11.819-7.331 20.006.091 8.184 2.534 14.84 7.331 19.968 4.797 5.128 11.403 7.772 19.818 7.931zm.075-12.525c-3.753-.092-6.578-1.558-8.475-4.397-1.897-2.839-2.847-6.498-2.85-10.978.003-4.483.953-8.155 2.85-11.015 1.897-2.861 4.722-4.339 8.475-4.434 3.753.095 6.578 1.573 8.475 4.434 1.897 2.861 2.847 6.533 2.85 11.015-.003 4.48-.953 8.139-2.85 10.978-1.897 2.839-4.722 4.305-8.475 4.397z"/></g><rect height="37.113" width="276.17" y="851.28" x="23.89" fill="#ffdab9"/></g></svg>