<?xml version="1.0" encoding="UTF-8" standalone="no"?>
<!-- Created with Inkscape (http://www.inkscape.org/) -->

<svg
   xmlns:dc="http://purl.org/dc/elements/1.1/"
   xmlns:cc="http://creativecommons.org/ns#"
   xmlns:rdf="http://www.w3.org/1999/02/22-rdf-syntax-ns#"
   xmlns:svg="http://www.w3.org/2000/svg"
   xmlns="http://www.w3.org/2000/svg"
   xmlns:sodipodi="http://sodipodi.sourceforge.net/DTD/sodipodi-0.dtd"
   xmlns:inkscape="http://www.inkscape.org/namespaces/inkscape"
   width="512"
   height="512"
   id="svg2"
   version="1.1"
   inkscape:version="0.48.2 r9819"
   sodipodi:docname="huruftimbul.svg">
  <defs
     id="defs4" />
  <sodipodi:namedview
     id="base"
     pagecolor="#ffffff"
     bordercolor="#666666"
     borderopacity="1.0"
     inkscape:pageopacity="0.0"
     inkscape:pageshadow="2"
     inkscape:zoom="1.4142136"
     inkscape:cx="387.75475"
     inkscape:cy="231.44038"
     inkscape:document-units="px"
     inkscape:current-layer="layer1"
     showgrid="true"
     inkscape:window-width="1920"
     inkscape:window-height="1005"
     inkscape:window-x="21"
     inkscape:window-y="18"
     inkscape:window-maximized="0">
    <inkscape:grid
       type="xygrid"
       id="grid2985"
       empspacing="5"
       visible="true"
       enabled="true"
       snapvisiblegridlinesonly="true"
       dotted="true"
       spacingx="16px"
       spacingy="16px" />
  </sodipodi:namedview>
  <metadata
     id="metadata7">
    <rdf:RDF>
      <cc:Work
         rdf:about="">
        <dc:format>image/svg+xml</dc:format>
        <dc:type
           rdf:resource="http://purl.org/dc/dcmitype/StillImage" />
        <dc:title />
      </cc:Work>
    </rdf:RDF>
  </metadata>
  <g
     inkscape:label="Layer 1"
     inkscape:groupmode="layer"
     id="layer1"
     transform="translate(0,-540.36218)">
    <path
       sodipodi:type="arc"
       style="fill:#ffa500;fill-opacity:1;fill-rule:nonzero;stroke:none"
       id="path4674"
       sodipodi:cx="240"
       sodipodi:cy="224"
       sodipodi:rx="240"
       sodipodi:ry="240"
       d="m 480,224 a 240,240 0 1 1 -480,0 240,240 0 1 1 480,0 z"
       transform="translate(16,572.36218)" />
    <g
       id="g4680"
       transform="matrix(0.55020506,0,0,0.55020506,-342.69329,334.29891)">
      <g
         transform="matrix(0.62975567,0,0,0.62975567,84.339083,299.73896)"
         id="text4109"
         style="font-size:735.89581299px;font-style:normal;font-variant:normal;font-weight:bold;font-stretch:normal;line-height:125%;letter-spacing:0px;word-spacing:0px;fill:#808080;fill-opacity:1;stroke:none;font-family:Playfair Display;-inkscape-font-specification:Sans Bold">
        <path
           style="fill:#808080;fill-opacity:1"
           sodipodi:nodetypes="cccccccscccscccccccscccsccsssssccscccscsccscc"
           inkscape:connector-curvature="0"
           id="path4117"
           d="m 300.98434,677.90614 c -2.2e-4,-20.36137 -4.85109,-36.41117 -14.55263,-48.14944 -9.70195,-11.73755 -24.85343,-17.6065 -45.4545,-17.60688 -9.58213,3.8e-4 -19.1641,1.49756 -28.74593,4.49155 -9.5821,2.99474 -17.48722,7.48629 -23.71539,13.47466 13.65419,4.55179 24.31413,11.67838 31.97984,21.37978 7.66544,9.70208 11.49822,21.8592 11.49838,36.4714 -1.6e-4,10.06137 -2.45554,19.10435 -7.36615,27.12897 -4.9109,8.02517 -11.91771,14.37323 -21.02046,19.04418 -9.10299,4.67147 -19.52338,7.00707 -31.2612,7.00682 -15.81034,2.5e-4 -28.44656,-5.38961 -37.90869,-16.16958 -9.46225,-10.77945 -14.19335,-24.31398 -14.19331,-40.60363 -4e-5,-25.39191 13.65427,-45.99314 40.96295,-61.80375 C 192,588.36218 224,588.36218 273.31638,597.77686 c 50.30513,3.9e-4 86.11774,11.01965 107.43791,33.05782 10.30032,10.30097 17.24724,23.11685 20.8408,38.44768 3.59292,15.33146 5.38954,36.77112 5.38987,64.31902 l 0,200.14354 c -3.3e-4,11.97751 1.13753,20.42162 3.41358,25.33235 2.27538,4.91078 6.28783,7.36616 12.03735,7.36614 7.90478,2e-5 3.26312,-17.69698 13.56411,-26.08123 l 21.29033,26.08123 c -11.25918,9.34244 -23.47619,16.16959 -36.65106,20.48148 -13.17554,4.31188 -28.98579,6.46783 -47.43078,6.46783 -24.91341,0 -42.8796,-5.50964 -53.89862,-16.52891 -11.0195,-11.01925 -16.52913,-25.3922 -16.52891,-43.11889 -11.97768,19.88263 -27.66815,34.79457 -47.07146,44.73585 -19.40366,9.9413 -40.12466,14.91195 -62.16308,14.91195 -28.02736,0 -50.4851,-7.36614 -67.37327,-22.09843 -16.88826,-14.73226 -25.33237,-35.2736 -25.33235,-61.62409 -2e-5,-25.63168 8.3842,-46.83179 25.15269,-63.60037 16.76839,-16.7683 42.75948,-31.62035 77.97333,-44.55619 3.83267,-1.43711 16.28922,-6.16821 37.36971,-14.19331 21.08017,-8.02469 37.32084,-30.5737 46.66347,-38.95815 9.34221,-8.384 12.98412,-3.26219 12.98434,-13.32351 z m 0,87.31576 c -3.11436,5.2703 -8.20478,10.72005 -15.27128,16.34925 -7.0669,5.62961 -17.18786,12.51665 -30.36289,20.66113 -15.57087,10.7799 -27.78788,22.93702 -36.65106,36.4714 -8.86346,13.53468 -13.29511,30.36301 -13.29499,50.48504 -1.2e-4,19.16404 4.19199,33.4771 12.57634,42.93924 8.38409,9.46225 19.40335,14.19334 33.05782,14.1933 19.40332,4e-5 39.06765,-33.83687 52.96172,-53.95908 z" />
      </g>
      <g
         transform="matrix(0.62975567,0,0,0.62975567,86.250753,301.01341)"
         id="text3879"
         style="font-size:735.89581299px;font-style:normal;font-variant:normal;font-weight:bold;font-stretch:normal;line-height:125%;letter-spacing:0px;word-spacing:0px;fill:#dcdcdc;fill-opacity:1;stroke:none;font-family:Playfair Display;-inkscape-font-specification:Sans Bold">
        <path
           style="fill:#dcdcdc"
           inkscape:connector-curvature="0"
           id="path4114"
           d="m 284.98434,661.90614 c -2.2e-4,-20.36137 -4.85109,-36.41117 -14.55263,-48.14944 -9.70195,-11.73755 -24.85343,-17.6065 -45.4545,-17.60688 -9.58213,3.8e-4 -19.1641,1.49756 -28.74593,4.49155 -9.5821,2.99474 -17.48722,7.48629 -23.71539,13.47466 13.65419,4.55179 24.31413,11.67838 31.97984,21.37978 7.66544,9.70208 11.49822,21.8592 11.49838,36.4714 -1.6e-4,10.06137 -2.45554,19.10435 -7.36615,27.12897 -4.9109,8.02517 -11.91771,14.37323 -21.02046,19.04418 -9.10299,4.67147 -19.52338,7.00707 -31.2612,7.00682 -15.81034,2.5e-4 -28.44656,-5.38961 -37.90869,-16.16958 -9.46225,-10.77945 -14.19335,-24.31398 -14.19331,-40.60363 -4e-5,-25.39191 13.65427,-45.99314 40.96295,-61.80375 29.94357,-16.52853 67.31324,-24.79297 112.10913,-24.79336 50.30513,3.9e-4 86.11774,11.01965 107.43791,33.05782 10.30032,10.30097 17.24724,23.11685 20.8408,38.44768 3.59292,15.33146 5.38954,36.77112 5.38987,64.31902 l 0,200.14354 c -3.3e-4,11.97751 1.13753,20.42162 3.41358,25.33235 2.27538,4.91078 6.28783,7.36616 12.03735,7.36614 7.90478,2e-5 17.00765,-4.19209 27.30864,-12.57634 l 7.5458,12.57634 c -11.25918,9.34244 -23.47619,16.16959 -36.65106,20.48148 -13.17554,4.31188 -28.98579,6.46783 -47.43078,6.46783 -24.91341,0 -42.8796,-5.50964 -53.89862,-16.52891 -11.0195,-11.01925 -16.52913,-25.3922 -16.52891,-43.11889 -11.97768,19.88263 -27.66815,34.79457 -47.07146,44.73585 -19.40366,9.9413 -40.12466,14.91195 -62.16308,14.91195 -28.02736,0 -50.4851,-7.36614 -67.37327,-22.09843 -16.888263,-14.73226 -25.332371,-35.2736 -25.332351,-61.62409 -2e-5,-25.63168 8.384201,-46.83179 25.152691,-63.60037 16.76839,-16.7683 42.75948,-31.62035 77.97333,-44.55619 3.83267,-1.43711 16.28922,-6.16821 37.36971,-14.19331 21.08017,-8.02469 36.29154,-16.22925 45.63417,-24.6137 9.34221,-8.384 14.01342,-17.60664 14.01364,-27.66796 l 0,-57.13253 z m 0,87.31576 c -3.11436,5.2703 -8.20478,10.72005 -15.27128,16.34925 -7.0669,5.62961 -17.18786,12.51665 -30.36289,20.66113 -15.57087,10.7799 -27.78788,22.93702 -36.65106,36.4714 -8.86346,13.53468 -13.29511,30.36301 -13.29499,50.48504 -1.2e-4,19.16404 4.19199,33.4771 12.57634,42.93924 8.38409,9.46225 19.40335,14.19334 33.05782,14.1933 19.40332,4e-5 36.05199,-10.06102 49.94606,-30.18323 l 0,-150.91613 z" />
      </g>
    </g>
    <g
       id="g5255">
      <g
         transform="translate(8.1573265,-3.250015)"
         id="text4691"
         style="font-size:140.02618408000000727px;font-style:normal;font-variant:normal;font-weight:bold;font-stretch:normal;line-height:125%;letter-spacing:0px;word-spacing:0px;fill:#696969;fill-opacity:1;stroke:none;font-family:Montserrat;-inkscape-font-specification:Sans Bold">
        <path
           sodipodi:nodetypes="cccccccccccscccscccccc"
           inkscape:connector-curvature="0"
           id="path5212"
           style="text-align:center;text-anchor:middle;fill:#696969"
           d="m 127.3962,786.96922 c -10e-5,15.68298 -6.20792,25.81154 -18.62349,30.38568 l 24.78464,35.00655 -26.88503,0 -5.28916,-6.59182 -16.414899,-24.63402 -15.122827,0 0,31.22584 -21.844085,0 -5.1263,-6.62427 5.1263,-91.25403 37.106939,0 c 15.216112,10e-5 26.044792,2.56724 32.486072,7.70144 6.53447,5.13438 9.80174,13.39591 9.80184,24.78463 m -41.587781,15.26286 c 7.468005,5e-5 12.555618,-1.21351 15.262851,-3.64068 2.70711,-2.42707 4.06069,-6.25445 4.06076,-11.48215 -7e-5,-5.32093 -1.40033,-8.9616 -4.20078,-10.92204 -2.800589,-1.96029 -7.701501,-2.94047 -14.702753,-2.94055 l -16.383063,0 0,28.98542 15.962985,0" />
        <path
           id="path5214"
           style="text-align:center;text-anchor:middle;fill:#696969"
           d="m 223.55918,802.93221 c -9e-5,-8.77492 -2.80061,-16.24297 -8.40157,-22.40419 -5.60112,-6.16108 -12.50907,-9.24165 -20.72388,-9.24173 -8.12157,8e-5 -14.98284,3.08065 -20.58385,9.24173 -5.60108,6.16122 -8.4016,13.62927 -8.40157,22.40419 -3e-5,8.68166 2.80049,16.10304 8.40157,22.26416 5.60101,6.06782 12.46228,9.10172 20.58385,9.1017 8.21481,2e-5 15.12276,-3.03388 20.72388,-9.1017 5.60096,-6.16112 8.40148,-13.5825 8.40157,-22.26416 m 7.42139,35.98673 c -9.89527,9.61513 -22.07754,14.42269 -36.54684,14.42269 -14.46941,0 -26.65168,-4.80756 -36.54683,-14.42269 -9.8952,-9.70846 -14.84278,-21.7507 -14.84278,-36.12676 0,-14.37596 4.94758,-26.37152 14.84278,-35.98673 9.89515,-9.70839 22.07742,-14.56262 36.54683,-14.56272 14.4693,10e-5 26.65157,4.85433 36.54684,14.56272 9.89508,9.61521 14.84266,21.61077 14.84277,35.98673 -1.1e-4,14.37606 -4.94769,26.4183 -14.84277,36.12676"
           inkscape:connector-curvature="0" />
        <path
           sodipodi:nodetypes="cccscsccsccsccssc"
           inkscape:connector-curvature="0"
           id="path5216"
           style="text-align:center;text-anchor:middle;fill:#696969"
           d="m 309.55275,833.03784 c 10.73527,2e-5 19.51024,-4.24744 26.32492,-12.74239 l 14.00262,14.4227 c -11.10883,12.50901 -24.2246,18.76351 -39.34736,18.76351 -15.02952,0 -27.44516,-4.76089 -37.24696,-14.28267 -9.70849,-9.52176 -14.56273,-21.51732 -14.56272,-35.98673 -1e-5,-14.56266 4.94758,-26.69825 14.84277,-36.40681 9.9885,-9.70839 22.17077,-14.56262 36.54684,-14.56272 13.88386,9e-5 25.4384,2.82193 35.41363,11.96555 1.56081,1.4307 3.44879,4.72333 4.91391,6.37788 l -13.58254,15.40288 c -1.36294,-1.69443 -3.79129,-5.22171 -5.28504,-6.58184 -6.07729,-5.53365 -12.23722,-6.30051 -20.47978,-6.30057 -8.21492,8e-5 -15.2629,2.70725 -21.14396,8.12152 -5.78778,5.32106 -8.68165,12.55574 -8.68162,21.70406 -3e-5,9.05506 2.75382,16.33642 8.26155,21.84408 5.50765,5.50772 12.18223,8.26157 20.02374,8.26155" />
        <path
           sodipodi:nodetypes="ccccccccccccccccccc"
           inkscape:connector-curvature="0"
           id="path5218"
           style="text-align:center;text-anchor:middle;fill:#696969"
           d="m 367.1626,754.48315 16.0874,-6.625 5.75669,6.625 0,6.62903 0,33.55848 36.96691,-40.18751 21.7764,-6.75 5.24865,6.75 -38.92727,43.26809 c 3.36056,4.66759 9.56838,13.39588 18.62348,26.18489 9.05494,12.69573 15.82286,22.17082 20.30379,28.42532 l -25.48476,0 -5.27035,-6.36947 -23.43502,-32.27776 -9.80183,10.92205 0,27.72518 -21.84409,0 -5.375,-6.37427 5.375,-91.50403" />
      </g>
      <path
         inkscape:connector-curvature="0"
         d="m 130.23887,777.2192 c -9e-5,15.68299 -6.20791,25.81155 -18.62348,30.38568 l 24.78464,35.00655 -26.88503,0 -21.704063,-31.22584 -15.122828,0 0,31.22584 -21.844085,0 0,-97.8783 37.106939,0 c 15.216117,1e-4 26.044797,2.56724 32.486077,7.70144 6.53447,5.13438 9.80174,13.39591 9.80183,24.78463 m -41.587776,15.26287 c 7.468006,5e-5 12.555616,-1.21352 15.262856,-3.64068 2.7071,-2.42707 4.06069,-6.25445 4.06076,-11.48216 -7e-5,-5.32092 -1.40033,-8.96159 -4.20079,-10.92204 -2.80058,-1.96029 -7.701496,-2.94047 -14.702747,-2.94055 l -16.383064,0 0,28.98542 15.962985,0"
         style="font-size:140.02618408px;font-style:normal;font-variant:normal;font-weight:bold;font-stretch:normal;text-align:center;line-height:125%;letter-spacing:0px;word-spacing:0px;text-anchor:middle;fill:#dcdcdc;fill-opacity:1;stroke:none;font-family:Montserrat;-inkscape-font-specification:Sans Bold"
         id="path5221" />
      <path
         inkscape:connector-curvature="0"
         d="m 226.40186,793.1822 c -9e-5,-8.77492 -2.80061,-16.24297 -8.40157,-22.40419 -5.60112,-6.16108 -12.50908,-9.24165 -20.72388,-9.24173 -8.12157,8e-5 -14.98284,3.08065 -20.58385,9.24173 -5.60108,6.16122 -8.4016,13.62927 -8.40157,22.40419 -3e-5,8.68166 2.80049,16.10304 8.40157,22.26416 5.60101,6.06782 12.46228,9.10172 20.58385,9.1017 8.2148,2e-5 15.12276,-3.03388 20.72388,-9.1017 5.60096,-6.16112 8.40148,-13.5825 8.40157,-22.26416 m 7.42139,35.98673 c -9.89527,9.61513 -22.07754,14.42269 -36.54684,14.42269 -14.46941,0 -26.65168,-4.80756 -36.54683,-14.42269 -9.8952,-9.70846 -14.84278,-21.75071 -14.84278,-36.12676 0,-14.37596 4.94758,-26.37152 14.84278,-35.98673 9.89515,-9.70839 22.07742,-14.56262 36.54683,-14.56272 14.4693,1e-4 26.65157,4.85433 36.54684,14.56272 9.89507,9.61521 14.84266,21.61077 14.84277,35.98673 -1.1e-4,14.37606 -4.9477,26.4183 -14.84277,36.12676"
         style="font-size:140.02618408px;font-style:normal;font-variant:normal;font-weight:bold;font-stretch:normal;text-align:center;line-height:125%;letter-spacing:0px;word-spacing:0px;text-anchor:middle;fill:#dcdcdc;fill-opacity:1;stroke:none;font-family:Montserrat;-inkscape-font-specification:Sans Bold"
         id="path5223" />
      <path
         inkscape:connector-curvature="0"
         d="m 312.39543,823.28782 c 10.73527,2e-5 19.51024,-4.24743 26.32492,-12.74239 l 14.00262,14.4227 c -11.10883,12.50901 -24.2246,18.76351 -39.34736,18.76351 -15.02952,0 -27.44516,-4.76089 -37.24696,-14.28267 -9.7085,-9.52176 -14.56273,-21.51732 -14.56273,-35.98673 0,-14.56266 4.94759,-26.69825 14.84278,-36.40681 9.9885,-9.70839 22.17077,-14.56262 36.54683,-14.56272 16.05627,10e-5 29.49877,6.11457 40.32754,18.34343 l -13.58253,15.40288 c -6.90804,-8.5882 -15.4963,-12.88233 -25.76482,-12.88241 -8.21492,8e-5 -15.2629,2.70725 -21.14396,8.12152 -5.78778,5.32106 -8.68165,12.55574 -8.68162,21.70406 -3e-5,9.05506 2.75382,16.33642 8.26154,21.84408 5.50766,5.50772 12.18223,8.26157 20.02375,8.26155"
         style="font-size:140.02618408px;font-style:normal;font-variant:normal;font-weight:bold;font-stretch:normal;text-align:center;line-height:125%;letter-spacing:0px;word-spacing:0px;text-anchor:middle;fill:#dcdcdc;fill-opacity:1;stroke:none;font-family:Montserrat;-inkscape-font-specification:Sans Bold"
         id="path5225" />
      <path
         inkscape:connector-curvature="0"
         d="m 370.00528,744.73314 21.84409,0 0,40.18751 36.96691,-40.18751 27.02505,0 -38.92728,43.26809 c 3.36057,4.66759 9.56839,13.39588 18.62349,26.18489 9.05494,12.69573 15.82286,22.17082 20.30379,28.42532 l -25.48476,0 -28.70537,-38.64723 -9.80183,10.92205 0,27.72518 -21.84409,0 0,-97.8783"
         style="font-size:140.02618408px;font-style:normal;font-variant:normal;font-weight:bold;font-stretch:normal;text-align:center;line-height:125%;letter-spacing:0px;word-spacing:0px;text-anchor:middle;fill:#dcdcdc;fill-opacity:1;stroke:none;font-family:Montserrat;-inkscape-font-specification:Sans Bold"
         id="path5227" />
    </g>
  </g>
</svg>
