<?xml version="1.0" encoding="UTF-8" standalone="no"?>
<svg
   xmlns:dc="http://purl.org/dc/elements/1.1/"
   xmlns:cc="http://creativecommons.org/ns#"
   xmlns:rdf="http://www.w3.org/1999/02/22-rdf-syntax-ns#"
   xmlns:svg="http://www.w3.org/2000/svg"
   xmlns="http://www.w3.org/2000/svg"
   xmlns:sodipodi="http://sodipodi.sourceforge.net/DTD/sodipodi-0.dtd"
   xmlns:inkscape="http://www.inkscape.org/namespaces/inkscape"
   width="512"
   height="512"
   id="svg2"
   version="1.1"
   inkscape:version="0.48.2 r9819"
   sodipodi:docname="konstruksi.svg">
  <metadata
     id="metadata80">
    <rdf:RDF>
      <cc:Work
         rdf:about="">
        <dc:format>image/svg+xml</dc:format>
        <dc:type
           rdf:resource="http://purl.org/dc/dcmitype/StillImage" />
      </cc:Work>
    </rdf:RDF>
  </metadata>
  <defs
     id="defs78" />
  <sodipodi:namedview
     pagecolor="#ffffff"
     bordercolor="#666666"
     borderopacity="1"
     objecttolerance="10"
     gridtolerance="10"
     guidetolerance="10"
     inkscape:pageopacity="0"
     inkscape:pageshadow="2"
     inkscape:window-width="1920"
     inkscape:window-height="1005"
     id="namedview76"
     showgrid="false"
     inkscape:zoom="1.1614781"
     inkscape:cx="397.41485"
     inkscape:cy="118.04533"
     inkscape:window-x="0"
     inkscape:window-y="22"
     inkscape:window-maximized="1"
     inkscape:current-layer="svg2">
    <inkscape:grid
       type="xygrid"
       id="grid3131"
       empspacing="5"
       visible="true"
       enabled="true"
       snapvisiblegridlinesonly="true"
       spacingx="16px"
       spacingy="16px" />
  </sodipodi:namedview>
  <path
     sodipodi:type="arc"
     style="fill:#00bfff;fill-opacity:1;fill-rule:nonzero;stroke:none"
     id="path3166"
     sodipodi:cx="224"
     sodipodi:cy="192"
     sodipodi:rx="224"
     sodipodi:ry="224"
     d="m 448,192 a 224,224 0 1 1 -448,0 224,224 0 1 1 448,0 z"
     transform="matrix(1.0714286,0,0,1.0714286,15.999994,50.285709)" />
  <path
     style="fill:#f4a460;fill-opacity:1;fill-rule:nonzero;stroke:none"
     d="M 52.8125 383.71875 C 95.298267 451.16113 170.40298 496 256 496 C 341.59702 496 416.70173 451.16113 459.1875 383.71875 L 52.8125 383.71875 z "
     id="rect7034" />
  <g
     id="g3971"
     transform="matrix(0.77131265,0,0,0.77131265,58.54396,58.54396)">
    <rect
       width="207.67717"
       height="161.03143"
       x="54.218037"
       y="248.72876"
       id="rect10"
       style="fill:#ffffff" />
    <rect
       width="122.37291"
       height="77.721703"
       x="54.218037"
       y="332.03842"
       id="rect12"
       style="opacity:0.422;fill:#dcdcdc" />
    <rect
       width="198.53865"
       height="186.43169"
       x="260.88101"
       y="226.88506"
       id="rect14"
       style="fill:#e9d3a9" />
    <rect
       width="46.715351"
       height="71.119041"
       x="302.51678"
       y="271.07858"
       id="rect16"
       style="fill:#5d0d00" />
    <rect
       width="105.10794"
       height="23.875099"
       x="263.41971"
       y="239.58414"
       id="rect18"
       style="opacity:0.297" />
    <rect
       width="94.953079"
       height="185.41492"
       x="363.9584"
       y="227.89966"
       id="rect20"
       style="fill:#f5deb3" />
    <rect
       y="244.15529"
       x="49.140602"
       height="168.14462"
       width="5.5856009"
       id="rect22"
       style="fill:#c0c0c0" />
    <rect
       width="214.27911"
       height="6.0964065"
       x="50.662979"
       y="407.72876"
       id="rect24"
       style="fill:#c0c0c0" />
    <rect
       width="6.093771"
       height="168.14462"
       x="259.35648"
       y="245.17209"
       id="rect26"
       style="fill:#c0c0c0" />
    <rect
       width="5.5856009"
       height="168.14462"
       x="172.52771"
       y="244.66376"
       id="rect28"
       style="fill:#c0c0c0" />
    <rect
       width="213.26276"
       height="6.6047959"
       x="51.171146"
       y="243.64694"
       id="rect30"
       style="fill:#c0c0c0" />
    <path
       d="m 257.83411,243.64696 235.60517,0.50839 -76.04616,-123.64982 -158.30353,0.0299 z"
       id="path32"
       inkscape:connector-curvature="0"
       style="fill:#ca5454" />
    <rect
       y="243.64694"
       x="363.9584"
       height="23.875099"
       width="95.46125"
       id="rect34"
       style="opacity:0.297" />
    <rect
       width="215.80148"
       height="7.6194396"
       x="264.94208"
       y="242.63235"
       id="rect36"
       style="fill:#a52a2a" />
    <rect
       width="5.0774307"
       height="21.335285"
       x="254.27907"
       y="324.9252"
       id="rect38"
       style="fill:#696969" />
    <path
       d="m 258.34014,100.21693 v 2.61885 h 67.166 v 32.74415 h -67.166 v 2.61885 h 67.166 v 27.77987 h -67.166 v 2.61885 h 67.166 v 28.33099 h -67.166 v 2.61885 h 67.166 v 27.77987 h -67.166 v 2.61885 h 67.166 v 191.49637 h 2.58142 V 229.94606 h 61.52915 v 191.49637 h 2.58142 V 229.94606 h 66.14752 v 191.49637 h 2.58142 V 102.83364 h 0.54233 v -2.61885 H 258.34441 z m 69.74528,2.61885 h 61.52915 v 32.74415 h -61.52915 v -32.74415 z m 64.10844,0 h 66.14752 v 32.74415 h -66.14752 v -32.74415 z m -64.10844,35.363 h 61.52915 v 27.77987 h -61.52915 v -27.77987 z m 64.10844,0 h 66.14752 v 27.77987 h -66.14752 v -27.77987 z m -64.10844,30.39872 h 61.52915 v 28.33099 H 328.08542 V 168.5975 z m 64.10844,0 h 66.14752 v 28.33099 H 392.19386 V 168.5975 z m -64.10844,30.95197 h 61.52915 v 27.77988 h -61.52915 v -27.77988 z m 64.10844,0 h 66.14752 v 27.77988 h -66.14752 v -27.77988 z"
       id="path40"
       inkscape:connector-curvature="0"
       style="fill:#a9a9a9" />
    <rect
       width="116.78731"
       height="74.167252"
       x="257.83411"
       y="90.743362"
       id="rect42"
       style="fill:#ff6347;fill-opacity:1" />
    <rect
       y="90.743362"
       x="34.922516"
       height="155.9518"
       width="231.54195"
       id="rect44"
       style="fill:#ff6347" />
    <rect
       y="225.86826"
       x="34.922516"
       height="20.826897"
       width="231.54195"
       id="rect46"
       style="fill:#8b4513" />
    <path
       d="m 199.23654,201.85859 -4.40485,3.27036 2.86967,2.00365 -3.73655,2.06987 -3.53584,-2.20231 -5.20554,1.13427 -2.66896,-1.46963 -2.40206,1.80286 -2.20136,-1.60207 -3.67036,0.13457 -2.13516,11.9493 27.09101,27.5684 67.12543,0.0662 0.0662,-36.44813 -3.60416,-3.53737 -2.80348,1.13426 -1.2021,-0.86725 -4.27034,2.80469 -4.00344,-2.73634 -8.67519,3.60573 -4.60342,-4.00518 -1.73589,2.33689 -4.80413,-2.13609 -2.33588,1.40127 -2.06897,-1.26883 -0.86688,0.66859 -7.4069,-5.60724 -4.47104,3.27036 2.66896,2.00365 -1.93447,1.20262 -1.60137,0.93561 -3.13657,-2.06987 -1.73589,1.9353 -2.66896,-1.53585 1.66757,-0.13458 -7.60761,-5.67346 z m 2.86967,6.00883 -1.26829,0.86725 -1.00139,-0.73482 2.26968,-0.13457 z"
       id="path48"
       inkscape:connector-curvature="0"
       style="opacity:0.15;fill:#ff0000" />
    <rect
       width="20.309723"
       height="331.71585"
       x="31.369598"
       y="90.235023"
       id="rect50"
       style="opacity:0.97399998;fill:#8b4513;fill-opacity:1" />
    <rect
       width="30.466719"
       height="331.71585"
       x="16.643343"
       y="90.235023"
       id="rect52"
       style="fill:#ff6347" />
    <rect
       width="426.52551"
       height="10.159253"
       x="34.414345"
       y="411.79156"
       id="rect54"
       style="fill:#696969" />
    <g
       transform="matrix(2.1351685,0,0,2.1360919,-77.801569,-1771.1277)"
       style="font-size:11.11400032px;font-style:italic;font-weight:bold;line-height:125%;letter-spacing:0;word-spacing:0;fill:#f0fff0;font-family:Haas Grot Disp;-inkscape-font-specification:Haas Grot Disp"
       font-size="11.114"
       letter-spacing="0"
       word-spacing="0"
       font-style="italic"
       font-weight="bold"
       id="g56">
      <path
         d="m 117.043,931.642 h 1.778 l 0.6,-3.101 c 0.144,-0.778 0.522,-1.289 1.1,-1.289 0.522,0 0.7,0.389 0.578,1 l -0.656,3.39 h 1.778 l 0.6,-3.101 c 0.144,-0.8 0.522,-1.289 1.1,-1.289 0.522,0 0.7,0.378 0.578,1 l -0.656,3.39 h 1.778 l 0.667,-3.456 c 0.289,-1.467 -0.333,-2.401 -1.534,-2.401 -0.734,0 -1.367,0.311 -1.889,1.056 h -0.022 c -0.2,-0.633 -0.645,-1.056 -1.4,-1.056 -0.778,0 -1.289,0.4 -1.723,1.022 h -0.033 l 0.167,-0.856 h -1.712 l -1.1,5.69"
         style="-inkscape-font-specification:Haas Grot Disp Bold Italic"
         id="path58"
         inkscape:connector-curvature="0" />
      <path
         d="m 126.442,931.642 h 1.778 l 1.1,-5.69 h -1.778 l -1.1,5.69 m 1.256,-6.479 h 1.778 l 0.278,-1.467 h -1.778 l -0.278,1.467"
         style="-inkscape-font-specification:Haas Grot Disp Bold Italic"
         id="path60"
         inkscape:connector-curvature="0" />
      <path
         d="m 129.068,931.642 h 1.778 l 0.6,-3.123 c 0.144,-0.711 0.589,-1.267 1.2,-1.267 0.589,0 0.789,0.4 0.667,1.022 l -0.656,3.368 h 1.778 l 0.678,-3.501 c 0.278,-1.467 -0.389,-2.356 -1.534,-2.356 -0.811,0 -1.378,0.411 -1.834,1.067 h -0.033 l 0.178,-0.9 h -1.723 l -1.1,5.69"
         style="-inkscape-font-specification:Haas Grot Disp Bold Italic"
         id="path62"
         inkscape:connector-curvature="0" />
      <path
         d="m 135.255,931.642 h 1.778 l 1.1,-5.69 h -1.778 l -1.1,5.69 m 1.256,-6.479 h 1.778 l 0.278,-1.467 h -1.778 l -0.278,1.467"
         style="-inkscape-font-specification:Haas Grot Disp Bold Italic"
         id="path64"
         inkscape:connector-curvature="0" />
      <path
         d="m 139.596,931.642 h 1.778 l 0.6,-3.101 c 0.144,-0.778 0.522,-1.289 1.1,-1.289 0.522,0 0.7,0.389 0.578,1 l -0.656,3.39 h 1.778 l 0.6,-3.101 c 0.144,-0.8 0.522,-1.289 1.1,-1.289 0.522,0 0.7,0.378 0.578,1 l -0.656,3.39 h 1.778 l 0.667,-3.456 c 0.289,-1.467 -0.333,-2.401 -1.534,-2.401 -0.734,0 -1.367,0.311 -1.889,1.056 h -0.022 c -0.2,-0.633 -0.645,-1.056 -1.4,-1.056 -0.778,0 -1.289,0.4 -1.723,1.022 h -0.033 l 0.167,-0.856 h -1.712 l -1.1,5.69"
         style="-inkscape-font-specification:Haas Grot Disp Bold Italic"
         id="path66"
         inkscape:connector-curvature="0" />
      <path
         d="m 150.851,931.787 c 0.667,0 1.178,-0.322 1.556,-0.767 h 0.022 c 0,0.245 0.022,0.489 0.089,0.622 h 1.712 v -0.078 c -0.1,-0.122 -0.122,-0.378 -0.033,-0.811 l 0.511,-2.623 c 0.178,-0.934 -0.078,-1.534 -0.545,-1.878 -0.445,-0.345 -1.067,-0.456 -1.723,-0.456 -1.656,0 -2.545,0.778 -2.756,1.956 h 1.656 c 0.122,-0.5 0.467,-0.745 1.011,-0.745 0.478,0 0.711,0.222 0.711,0.545 0,0.556 -0.456,0.622 -1.578,0.7 -1.389,0.1 -2.423,0.5 -2.423,1.889 0,1.067 0.8,1.645 1.789,1.645 m 0.667,-1.156 c -0.433,0 -0.734,-0.2 -0.734,-0.645 0,-0.656 0.633,-0.689 1.089,-0.767 0.422,-0.067 0.711,-0.133 0.967,-0.256 l -0.133,0.7 c -0.133,0.622 -0.578,0.967 -1.189,0.967"
         style="-inkscape-font-specification:Haas Grot Disp Bold Italic"
         id="path68"
         inkscape:connector-curvature="0" />
      <path
         d="m 154.856,931.642 h 1.778 l 0.478,-2.49 c 0.267,-1.367 0.956,-1.812 2.101,-1.645 h 0.033 l 0.311,-1.6 c -0.067,-0.022 -0.211,-0.044 -0.4,-0.044 -0.711,0 -1.234,0.356 -1.645,1.022 h -0.033 l 0.189,-0.934 h -1.712 l -1.1,5.69"
         style="-inkscape-font-specification:Haas Grot Disp Bold Italic"
         id="path70"
         inkscape:connector-curvature="0" />
    </g>
    <path
       d="m 52.243004,90.049131 -1.067585,1.068046 V 323.15016 l 1.001394,1.00183 -0.50817,-77.4846 157.376867,-0.12603 z"
       id="path72"
       inkscape:connector-curvature="0"
       style="opacity:0.15500004;fill:#8b4513" />
    <path
       id="path3094"
       d="m 374.58726,121.8235 v 43.05507 H 266.60965 l -0.25408,77.89472 229.00109,-0.12603 z"
       style="opacity:0.15500004"
       inkscape:connector-curvature="0" />
  </g>
  <path
     style="fill:#dd9557;fill-opacity:1;fill-rule:nonzero;stroke:none;opacity:1"
     d="M 52.8125 383.71875 C 54.462137 386.3374 56.159555 388.91955 57.90625 391.46875 L 454.09375 391.46875 C 455.84045 388.91955 457.53786 386.3374 459.1875 383.71875 L 52.8125 383.71875 z "
     id="rect7547" />
</svg>
