<svg xmlns="http://www.w3.org/2000/svg" width="300" height="200"><g transform="translate(0 -852.362)"><rect width="300.832" height="200.238" x="-.238" y="-.238" transform="translate(0 852.362)" fill="#fffda1"/><rect width="79.191" height="2.14" x="221.403" y="1024.538" opacity=".302"/><rect width="97.265" height="75.386" x="61.831" y="945.585" fill="#fff"/><rect width="57.313" height="36.385" x="61.831" y="984.586" opacity=".422" fill="#dcdcdc"/><rect width="92.985" height="87.277" x="158.621" y="935.359" fill="#e9d3a9"/><rect width="21.879" height="33.294" x="178.121" y="956.048" fill="#5d0d00"/><rect width="49.227" height="11.177" x="159.81" y="941.304" opacity=".297"/><rect width="44.471" height="86.801" x="206.897" y="935.834" fill="#f5deb3"/><rect y="943.444" x="59.453" height="78.716" width="2.616" fill="#c0c0c0"/><rect width="100.357" height="2.854" x="60.166" y="1020.02" fill="#c0c0c0"/><rect width="2.854" height="78.716" x="157.907" y="943.92" fill="#c0c0c0"/><rect width="2.616" height="78.716" x="117.241" y="943.682" fill="#c0c0c0"/><rect width="99.881" height="3.092" x="60.404" y="943.206" fill="#c0c0c0"/><path d="M157.194 943.206l110.345.238-35.616-57.886-74.141.014z" fill="#ca5454"/><rect y="943.206" x="206.897" height="11.177" width="44.709" opacity=".297"/><rect width="101.07" height="3.567" x="160.523" y="942.731" fill="#a52a2a"/><rect width="2.378" height="9.988" x="155.529" y="981.256" fill="#696969"/><path d="M157.431 876.06v1.226h31.457v15.329h-31.457v1.226h31.457v13.005h-31.457v1.226h31.457v13.263h-31.457v1.226h31.457v13.005h-31.457v1.226h31.457v89.648h1.209v-89.648h28.817v89.648h1.209v-89.648h30.98v89.648h1.209v-149.155h.254v-1.226h-95.133zm32.665 1.226h28.817v15.329h-28.817v-15.329zm30.025 0h30.98v15.329h-30.98v-15.329zm-30.025 16.555h28.817v13.005h-28.817v-13.005zm30.025 0h30.98v13.005h-30.98v-13.005zm-30.025 14.231h28.817v13.263h-28.817v-13.263zm30.025 0h30.98v13.263h-30.98v-13.263zm-30.025 14.49h28.817v13.005h-28.817v-13.005zm30.025 0h30.98v13.005h-30.98v-13.005z" fill="#a9a9a9"/><rect width="54.697" height="34.721" x="157.194" y="871.625" fill="#f44a4a"/><rect y="871.625" x="52.794" height="73.008" width="108.442" fill="#f44a4a"/><rect y="934.883" x="52.794" height="9.75" width="108.442" fill="#d34141"/><path d="M129.75 923.643l-2.063 1.531 1.344.938-1.75.969-1.656-1.031-2.438.531-1.25-.688-1.125.844-1.031-.75-1.719.063-1 5.594 12.688 12.906 31.438.031.031-17.063-1.688-1.656-1.313.531-.563-.406-2 1.313-1.875-1.281-4.063 1.688-2.156-1.875-.813 1.094-2.25-1-1.094.656-.969-.594-.406.313-3.469-2.625-2.094 1.531 1.25.938-.906.563-.75.438-1.469-.969-.813.906-1.25-.719.781-.063-3.563-2.656zm1.344 2.813l-.594.406-.469-.344 1.063-.063z" opacity=".15"/><rect width="9.512" height="155.291" x="51.13" y="871.387" fill="#c22d2d" opacity=".974"/><rect width="14.269" height="155.291" x="44.233" y="871.387" fill="#ff4c4c"/><rect width="199.762" height="4.756" x="52.556" y="1021.922" fill="#696969"/><g style="line-height:125%;-inkscape-font-specification:Haas Grot Disp" font-size="11.114" letter-spacing="0" word-spacing="0" fill="#f0fff0" font-family="Haas Grot Disp" font-style="italic" font-weight="bold"><path d="M117.043 931.642h1.778l.6-3.101c.144-.778.522-1.289 1.1-1.289.522 0 .7.389.578 1l-.656 3.39h1.778l.6-3.101c.144-.8.522-1.289 1.1-1.289.522 0 .7.378.578 1l-.656 3.39h1.778l.667-3.456c.289-1.467-.333-2.401-1.534-2.401-.734 0-1.367.311-1.889 1.056h-.022c-.2-.633-.645-1.056-1.4-1.056-.778 0-1.289.4-1.723 1.022h-.033l.167-.856h-1.712l-1.1 5.69" style="-inkscape-font-specification:Haas Grot Disp Bold Italic"/><path d="M126.442 931.642h1.778l1.1-5.69h-1.778l-1.1 5.69m1.256-6.479h1.778l.278-1.467h-1.778l-.278 1.467" style="-inkscape-font-specification:Haas Grot Disp Bold Italic"/><path d="M129.068 931.642h1.778l.6-3.123c.144-.711.589-1.267 1.2-1.267.589 0 .789.4.667 1.022l-.656 3.368h1.778l.678-3.501c.278-1.467-.389-2.356-1.534-2.356-.811 0-1.378.411-1.834 1.067h-.033l.178-.9h-1.723l-1.1 5.69" style="-inkscape-font-specification:Haas Grot Disp Bold Italic"/><path d="M135.255 931.642h1.778l1.1-5.69h-1.778l-1.1 5.69m1.256-6.479h1.778l.278-1.467h-1.778l-.278 1.467" style="-inkscape-font-specification:Haas Grot Disp Bold Italic"/><path d="M139.596 931.642h1.778l.6-3.101c.144-.778.522-1.289 1.1-1.289.522 0 .7.389.578 1l-.656 3.39h1.778l.6-3.101c.144-.8.522-1.289 1.1-1.289.522 0 .7.378.578 1l-.656 3.39h1.778l.667-3.456c.289-1.467-.333-2.401-1.534-2.401-.734 0-1.367.311-1.889 1.056h-.022c-.2-.633-.645-1.056-1.4-1.056-.778 0-1.289.4-1.723 1.022h-.033l.167-.856h-1.712l-1.1 5.69" style="-inkscape-font-specification:Haas Grot Disp Bold Italic"/><path d="M150.851 931.787c.667 0 1.178-.322 1.556-.767h.022c0 .245.022.489.089.622h1.712v-.078c-.1-.122-.122-.378-.033-.811l.511-2.623c.178-.934-.078-1.534-.545-1.878-.445-.345-1.067-.456-1.723-.456-1.656 0-2.545.778-2.756 1.956h1.656c.122-.5.467-.745 1.011-.745.478 0 .711.222.711.545 0 .556-.456.622-1.578.7-1.389.1-2.423.5-2.423 1.889 0 1.067.8 1.645 1.789 1.645m.667-1.156c-.433 0-.734-.2-.734-.645 0-.656.633-.689 1.089-.767.422-.067.711-.133.967-.256l-.133.7c-.133.622-.578.967-1.189.967" style="-inkscape-font-specification:Haas Grot Disp Bold Italic"/><path d="M154.856 931.642h1.778l.478-2.49c.267-1.367.956-1.812 2.101-1.645h.033l.311-1.6c-.067-.022-.211-.044-.4-.044-.711 0-1.234.356-1.645 1.022h-.033l.189-.934h-1.712l-1.1 5.69" style="-inkscape-font-specification:Haas Grot Disp Bold Italic"/></g><path d="M60.906 871.3l-.5.5v108.625l.469.469-.238-36.274 73.707-.059z" opacity=".155"/><path d="M211.875 886.175v20.156h-50.571l-.119 36.466 107.252-.059zm49.875 185.688l4.531 4.531 4.531-4.531z" opacity=".155"/></g></svg>