<?xml version="1.0" encoding="UTF-8" standalone="no"?>
<!-- Created with Inkscape (http://www.inkscape.org/) -->

<svg
   xmlns:dc="http://purl.org/dc/elements/1.1/"
   xmlns:cc="http://creativecommons.org/ns#"
   xmlns:rdf="http://www.w3.org/1999/02/22-rdf-syntax-ns#"
   xmlns:svg="http://www.w3.org/2000/svg"
   xmlns="http://www.w3.org/2000/svg"
   version="1.1"
   width="512"
   height="512"
   id="svg2">
  <defs
     id="defs4" />
  <metadata
     id="metadata7">
    <rdf:RDF>
      <cc:Work
         rdf:about="">
        <dc:format>image/svg+xml</dc:format>
        <dc:type
           rdf:resource="http://purl.org/dc/dcmitype/StillImage" />
        <dc:title></dc:title>
      </cc:Work>
    </rdf:RDF>
  </metadata>
  <g
     transform="translate(0,-540.36218)"
     id="layer1">
    <g
       transform="matrix(1.0976581,0,0,1.0976581,-46.496298,-78.028583)"
       id="g4129">
      <g
         transform="translate(3,8)"
         id="text4109"
         style="font-size:735.89581299px;font-style:normal;font-variant:normal;font-weight:bold;font-stretch:normal;line-height:125%;letter-spacing:0px;word-spacing:0px;fill:#808080;fill-opacity:1;stroke:none;font-family:Playfair Display;-inkscape-font-specification:Sans Bold">
        <path
           d="m 300.98434,677.90614 c -2.2e-4,-20.36137 -4.85109,-36.41117 -14.55263,-48.14944 -9.70195,-11.73755 -24.85343,-17.6065 -45.4545,-17.60688 -9.58213,3.8e-4 -19.1641,1.49756 -28.74593,4.49155 -9.5821,2.99474 -17.48722,7.48629 -23.71539,13.47466 13.65419,4.55179 24.31413,11.67838 31.97984,21.37978 7.66544,9.70208 11.49822,21.8592 11.49838,36.4714 -1.6e-4,10.06137 -2.45554,19.10435 -7.36615,27.12897 -4.9109,8.02517 -11.91771,14.37323 -21.02046,19.04418 -9.10299,4.67147 -19.52338,7.00707 -31.2612,7.00682 -15.81034,2.5e-4 -28.44656,-5.38961 -37.90869,-16.16958 -9.46225,-10.77945 -14.19335,-24.31398 -14.19331,-40.60363 -4e-5,-25.39191 13.65427,-45.99314 40.96295,-61.80375 C 192,588.36218 224,588.36218 273.31638,597.77686 c 50.30513,3.9e-4 86.11774,11.01965 107.43791,33.05782 10.30032,10.30097 17.24724,23.11685 20.8408,38.44768 3.59292,15.33146 5.38954,36.77112 5.38987,64.31902 l 0,200.14354 c -3.3e-4,11.97751 1.13753,20.42162 3.41358,25.33235 2.27538,4.91078 6.28783,7.36616 12.03735,7.36614 7.90478,2e-5 3.26312,-17.69698 13.56411,-26.08123 l 21.29033,26.08123 c -11.25918,9.34244 -23.47619,16.16959 -36.65106,20.48148 -13.17554,4.31188 -28.98579,6.46783 -47.43078,6.46783 -24.91341,0 -42.8796,-5.50964 -53.89862,-16.52891 -11.0195,-11.01925 -16.52913,-25.3922 -16.52891,-43.11889 -11.97768,19.88263 -27.66815,34.79457 -47.07146,44.73585 -19.40366,9.9413 -40.12466,14.91195 -62.16308,14.91195 -28.02736,0 -50.4851,-7.36614 -67.37327,-22.09843 -16.88826,-14.73226 -25.33237,-35.2736 -25.33235,-61.62409 -2e-5,-25.63168 8.3842,-46.83179 25.15269,-63.60037 16.76839,-16.7683 42.75948,-31.62035 77.97333,-44.55619 3.83267,-1.43711 16.28922,-6.16821 37.36971,-14.19331 21.08017,-8.02469 37.32084,-30.5737 46.66347,-38.95815 9.34221,-8.384 12.98412,-3.26219 12.98434,-13.32351 z m 0,87.31576 c -3.11436,5.2703 -8.20478,10.72005 -15.27128,16.34925 -7.0669,5.62961 -17.18786,12.51665 -30.36289,20.66113 -15.57087,10.7799 -27.78788,22.93702 -36.65106,36.4714 -8.86346,13.53468 -13.29511,30.36301 -13.29499,50.48504 -1.2e-4,19.16404 4.19199,33.4771 12.57634,42.93924 8.38409,9.46225 19.40335,14.19334 33.05782,14.1933 19.40332,4e-5 39.06765,-33.83687 52.96172,-53.95908 z"
           id="path4117"
           style="fill:#808080" />
      </g>
      <g
         transform="translate(6.0355731,10.023715)"
         id="text3879"
         style="font-size:735.89581299px;font-style:normal;font-variant:normal;font-weight:bold;font-stretch:normal;line-height:125%;letter-spacing:0px;word-spacing:0px;fill:#dcdcdc;fill-opacity:1;stroke:none;font-family:Playfair Display;-inkscape-font-specification:Sans Bold">
        <path
           d="m 284.98434,661.90614 c -2.2e-4,-20.36137 -4.85109,-36.41117 -14.55263,-48.14944 -9.70195,-11.73755 -24.85343,-17.6065 -45.4545,-17.60688 -9.58213,3.8e-4 -19.1641,1.49756 -28.74593,4.49155 -9.5821,2.99474 -17.48722,7.48629 -23.71539,13.47466 13.65419,4.55179 24.31413,11.67838 31.97984,21.37978 7.66544,9.70208 11.49822,21.8592 11.49838,36.4714 -1.6e-4,10.06137 -2.45554,19.10435 -7.36615,27.12897 -4.9109,8.02517 -11.91771,14.37323 -21.02046,19.04418 -9.10299,4.67147 -19.52338,7.00707 -31.2612,7.00682 -15.81034,2.5e-4 -28.44656,-5.38961 -37.90869,-16.16958 -9.46225,-10.77945 -14.19335,-24.31398 -14.19331,-40.60363 -4e-5,-25.39191 13.65427,-45.99314 40.96295,-61.80375 29.94357,-16.52853 67.31324,-24.79297 112.10913,-24.79336 50.30513,3.9e-4 86.11774,11.01965 107.43791,33.05782 10.30032,10.30097 17.24724,23.11685 20.8408,38.44768 3.59292,15.33146 5.38954,36.77112 5.38987,64.31902 l 0,200.14354 c -3.3e-4,11.97751 1.13753,20.42162 3.41358,25.33235 2.27538,4.91078 6.28783,7.36616 12.03735,7.36614 7.90478,2e-5 17.00765,-4.19209 27.30864,-12.57634 l 7.5458,12.57634 c -11.25918,9.34244 -23.47619,16.16959 -36.65106,20.48148 -13.17554,4.31188 -28.98579,6.46783 -47.43078,6.46783 -24.91341,0 -42.8796,-5.50964 -53.89862,-16.52891 -11.0195,-11.01925 -16.52913,-25.3922 -16.52891,-43.11889 -11.97768,19.88263 -27.66815,34.79457 -47.07146,44.73585 -19.40366,9.9413 -40.12466,14.91195 -62.16308,14.91195 -28.02736,0 -50.4851,-7.36614 -67.37327,-22.09843 -16.888263,-14.73226 -25.332371,-35.2736 -25.332351,-61.62409 -2e-5,-25.63168 8.384201,-46.83179 25.152691,-63.60037 16.76839,-16.7683 42.75948,-31.62035 77.97333,-44.55619 3.83267,-1.43711 16.28922,-6.16821 37.36971,-14.19331 21.08017,-8.02469 36.29154,-16.22925 45.63417,-24.6137 9.34221,-8.384 14.01342,-17.60664 14.01364,-27.66796 l 0,-57.13253 z m 0,87.31576 c -3.11436,5.2703 -8.20478,10.72005 -15.27128,16.34925 -7.0669,5.62961 -17.18786,12.51665 -30.36289,20.66113 -15.57087,10.7799 -27.78788,22.93702 -36.65106,36.4714 -8.86346,13.53468 -13.29511,30.36301 -13.29499,50.48504 -1.2e-4,19.16404 4.19199,33.4771 12.57634,42.93924 8.38409,9.46225 19.40335,14.19334 33.05782,14.1933 19.40332,4e-5 36.05199,-10.06102 49.94606,-30.18323 l 0,-150.91613 z"
           id="path4114"
           style="fill:#dcdcdc" />
      </g>
    </g>
  </g>
</svg>
