<?xml version="1.0" encoding="UTF-8" standalone="no"?>
<!-- Created with Inkscape (http://www.inkscape.org/) -->

<svg
   xmlns:dc="http://purl.org/dc/elements/1.1/"
   xmlns:cc="http://creativecommons.org/ns#"
   xmlns:rdf="http://www.w3.org/1999/02/22-rdf-syntax-ns#"
   xmlns:svg="http://www.w3.org/2000/svg"
   xmlns="http://www.w3.org/2000/svg"
   xmlns:sodipodi="http://sodipodi.sourceforge.net/DTD/sodipodi-0.dtd"
   xmlns:inkscape="http://www.inkscape.org/namespaces/inkscape"
   width="512"
   height="512"
   id="svg2"
   version="1.1"
   inkscape:version="0.48.4 r9939"
   sodipodi:docname="neonbox.svg">
  <defs
     id="defs4" />
  <sodipodi:namedview
     id="base"
     pagecolor="#ffffff"
     bordercolor="#666666"
     borderopacity="1.0"
     inkscape:pageopacity="0.0"
     inkscape:pageshadow="2"
     inkscape:zoom="0.70710678"
     inkscape:cx="266.55686"
     inkscape:cy="215.24064"
     inkscape:document-units="px"
     inkscape:current-layer="layer1"
     showgrid="false"
     inkscape:window-width="1024"
     inkscape:window-height="716"
     inkscape:window-x="-8"
     inkscape:window-y="-8"
     inkscape:window-maximized="1"
     showguides="true"
     inkscape:guide-bbox="true">
    <inkscape:grid
       type="xygrid"
       id="grid2985"
       empspacing="5"
       visible="true"
       enabled="true"
       snapvisiblegridlinesonly="true"
       dotted="true"
       spacingx="16px"
       spacingy="16px" />
  </sodipodi:namedview>
  <metadata
     id="metadata7">
    <rdf:RDF>
      <cc:Work
         rdf:about="">
        <dc:format>image/svg+xml</dc:format>
        <dc:type
           rdf:resource="http://purl.org/dc/dcmitype/StillImage" />
        <dc:title></dc:title>
      </cc:Work>
    </rdf:RDF>
  </metadata>
  <g
     inkscape:label="Layer 1"
     inkscape:groupmode="layer"
     id="layer1"
     transform="translate(0,-540.36218)">
    <path
       style="fill:#808080;fill-opacity:1;stroke:none"
       d="m 32.5,620.36217 446.5,-2.5 0.5,258.5 -16,33 -416,0 -16,-33 z"
       id="rect4135"
       inkscape:connector-curvature="0"
       sodipodi:nodetypes="ccccccc" />
    <rect
       ry="0"
       y="588.36218"
       x="31.5"
       height="288"
       width="448"
       id="rect4196"
       style="fill:#32cd32;fill-opacity:1;stroke:none" />
    <path
       id="path4226"
       d="m 31.5,590.36217 0,279.51472 448,0 0,-279.51472 z m 16,16 416,0 0,256 -416,0 z"
       style="fill:#a9a9a9;fill-opacity:1;stroke:none"
       inkscape:connector-curvature="0"
       sodipodi:nodetypes="cccccccccc" />
    <path
       inkscape:connector-curvature="0"
       style="fill:#d3d3d3;fill-opacity:1;stroke:none"
       d="m 31.5,588.36217 0,288 448,0 0,-288 -448,0 z m 16,16 416,0 0,256 -416,0 0,-256 z"
       id="rect4139" />
    <path
       inkscape:connector-curvature="0"
       style="fill:#f5f5f5;fill-opacity:1;stroke:none"
       d="m 31.5,588.36217 0,288 98.09375,0 16.6875,-16 -98.78125,0 0,-256 365.90625,0 16.6875,-16 -398.59375,0 z"
       id="path4191" />
    <path
       style="fill:#696969;fill-opacity:1;stroke:none"
       d="m 255.99995,885.55585 c -12.93607,0 -23.469,6.74667 -23.96875,15.21875 l -0.0312,0 0,0.625 0,94.8621 48,0 0,-94.8621 0,-0.625 -0.0312,0 c -0.49975,-8.47208 -11.03268,-15.21875 -23.96875,-15.21875 z"
       id="rect4199"
       inkscape:connector-curvature="0"
       sodipodi:nodetypes="sccccccccss" />
    <text
       xml:space="preserve"
       style="font-size:64px;font-style:normal;font-variant:normal;font-weight:900;font-stretch:normal;line-height:125%;letter-spacing:0px;word-spacing:0px;fill:#f5fffa;fill-opacity:1;stroke:none;font-family:VAL;-inkscape-font-specification:VAL Heavy"
       x="97.580734"
       y="759.62"
       id="text4260"
       sodipodi:linespacing="125%"><tspan
         sodipodi:role="line"
         id="tspan4262"
         x="97.580734"
         y="759.62">NEONBOX</tspan></text>
    <path
       style="fill:#a9a9a9;fill-opacity:1;stroke:none"
       d="M 256 345.1875 C 243.06393 345.1875 232.531 351.93417 232.03125 360.40625 L 232 360.40625 L 232 361.03125 L 232 455.90625 L 258.8125 455.90625 L 258.8125 345.3125 C 257.89116 345.24167 256.9503 345.1875 256 345.1875 z "
       transform="translate(0,540.36218)"
       id="path4264" />
    <path
       inkscape:connector-curvature="0"
       style="opacity:0.38461537;fill:#808080;fill-opacity:1;stroke:none"
       d="m 256,885.54967 c -12.93607,0 -23.469,6.74667 -23.96875,15.21875 l -0.0312,0 0,0.625 0,53.78125 48,-5.27208 0,-48.50917 0,-0.625 -0.0312,0 C 279.469,892.29634 268.93607,885.54967 256,885.54967 z"
       id="path4207"
       sodipodi:nodetypes="sccccccccs" />
  </g>
</svg>
