<?xml version="1.0" encoding="UTF-8" standalone="no"?>
<!-- Created with Inkscape (http://www.inkscape.org/) -->

<svg
   xmlns:dc="http://purl.org/dc/elements/1.1/"
   xmlns:cc="http://creativecommons.org/ns#"
   xmlns:rdf="http://www.w3.org/1999/02/22-rdf-syntax-ns#"
   xmlns:svg="http://www.w3.org/2000/svg"
   xmlns="http://www.w3.org/2000/svg"
   xmlns:sodipodi="http://sodipodi.sourceforge.net/DTD/sodipodi-0.dtd"
   xmlns:inkscape="http://www.inkscape.org/namespaces/inkscape"
   width="512"
   height="512"
   id="svg2"
   version="1.1"
   inkscape:version="0.48.2 r9819"
   sodipodi:docname="neonboxs.svg">
  <defs
     id="defs4" />
  <sodipodi:namedview
     id="base"
     pagecolor="#ffffff"
     bordercolor="#666666"
     borderopacity="1.0"
     inkscape:pageopacity="0.0"
     inkscape:pageshadow="2"
     inkscape:zoom="2"
     inkscape:cx="177.63773"
     inkscape:cy="146.65046"
     inkscape:document-units="px"
     inkscape:current-layer="layer1"
     showgrid="true"
     inkscape:window-width="1920"
     inkscape:window-height="1005"
     inkscape:window-x="-3"
     inkscape:window-y="22"
     inkscape:window-maximized="0"
     showguides="true"
     inkscape:guide-bbox="true">
    <inkscape:grid
       type="xygrid"
       id="grid2985"
       empspacing="5"
       visible="true"
       enabled="true"
       snapvisiblegridlinesonly="true"
       dotted="true"
       spacingx="16px"
       spacingy="16px" />
  </sodipodi:namedview>
  <metadata
     id="metadata7">
    <rdf:RDF>
      <cc:Work
         rdf:about="">
        <dc:format>image/svg+xml</dc:format>
        <dc:type
           rdf:resource="http://purl.org/dc/dcmitype/StillImage" />
        <dc:title />
      </cc:Work>
    </rdf:RDF>
  </metadata>
  <g
     inkscape:label="Layer 1"
     inkscape:groupmode="layer"
     id="layer1"
     transform="translate(0,-540.36218)">
    <path
       sodipodi:type="arc"
       style="fill:#1d0032;fill-opacity:1;fill-rule:nonzero;stroke:none"
       id="path5772"
       sodipodi:cx="224"
       sodipodi:cy="208"
       sodipodi:rx="176"
       sodipodi:ry="176"
       d="m 400,208 a 176,176 0 1 1 -352,0 176,176 0 1 1 352,0 z"
       transform="matrix(1.3636364,0,0,1.3636364,-49.454554,512.7258)" />
    <path
       style="fill:#3a0054;fill-opacity:1;fill-rule:nonzero;stroke:none"
       d="M 268.96875 416.8125 C 248.37642 416.8125 230.81493 429.78578 224 448 C 215.24184 438.65218 202.78909 432.8125 188.96875 432.8125 C 167.02218 432.8125 148.53327 447.54418 142.8125 467.65625 C 176.53431 485.72697 215.06525 496 256 496 C 288.89853 496 320.234 489.35456 348.78125 477.375 C 347.06927 461.31537 333.48269 448.8125 316.96875 448.8125 C 316.0656 448.8125 315.16546 448.8645 314.28125 448.9375 C 307.7263 430.23098 289.91364 416.8125 268.96875 416.8125 z "
       transform="translate(0,540.36218)"
       id="path8078" />
    <g
       id="g8074"
       transform="matrix(0.5,0,0,0.5,220,614.18109)">
      <path
         inkscape:connector-curvature="0"
         id="path8062"
         d="m -96,572.36218 c -35.34622,0 -64,28.65378 -64,64 0,35.34622 28.65378,64 64,64 35.346224,0 64,-28.65378 64,-64 0,-2.88481 -0.223955,-5.71628 -0.59375,-8.5 -3.599702,22.94828 -23.447218,40.5 -47.40625,40.5 -26.50967,0 -48,-21.49033 -48,-48 0,-23.95903 17.55172,-43.80655 40.5,-47.40625 -2.78372,-0.36979 -5.61519,-0.59375 -8.5,-0.59375 z"
         style="fill:#ffff00;fill-opacity:1;fill-rule:nonzero;stroke:none" />
      <path
         id="path8069"
         transform="translate(0,540.36218)"
         d="M -91.9375,32.15625 C -121.02236,34.182889 -144,58.399974 -144,88 c 0,30.92795 25.07205,56 56,56 29.600026,0 53.817111,-22.97764 55.84375,-52.0625 -0.102444,-1.490452 -0.243119,-2.974247 -0.4375,-4.4375 C -36.193452,110.44828 -56.040968,128 -80,128 c -26.50967,0 -48,-21.49033 -48,-48 0,-23.95903 17.55172,-43.80655 40.5,-47.40625 -1.463253,-0.194379 -2.947048,-0.335056 -4.4375,-0.4375 z"
         style="opacity:0.07943923;fill:#000000;fill-opacity:1;fill-rule:nonzero;stroke:none"
         inkscape:connector-curvature="0" />
    </g>
    <path
       style="fill:#808080;fill-opacity:1;stroke:none"
       d="M 96.714287,698.41439 415.64286,696.69889 416,874.08221 l -11.42857,22.64468 -297.14286,0 -11.428569,-22.64468 z"
       id="rect4135"
       inkscape:connector-curvature="0"
       sodipodi:nodetypes="ccccccc" />
    <rect
       ry="0"
       y="676.45593"
       x="96"
       height="197.6263"
       width="320"
       id="rect4196"
       style="fill:#ff0000;fill-opacity:1;stroke:none" />
    <path
       id="path4226"
       d="m 96.000001,677.82832 0,191.80368 319.999999,0 0,-191.80368 z m 11.428569,10.97924 297.14286,0 0,175.66782 -297.14286,0 z"
       style="fill:#a9a9a9;fill-opacity:1;stroke:none"
       inkscape:connector-curvature="0"
       sodipodi:nodetypes="cccccccccc" />
    <path
       inkscape:connector-curvature="0"
       style="fill:#d3d3d3;fill-opacity:1;stroke:none"
       d="m 96.000001,676.45591 0,197.6263 319.999999,0 0,-197.6263 -319.999999,0 z m 11.428569,10.97924 297.14286,0 0,175.66782 -297.14286,0 0,-175.66782 z"
       id="rect4139" />
    <path
       inkscape:connector-curvature="0"
       style="fill:#f5f5f5;fill-opacity:1;stroke:none"
       d="m 96.000001,676.45591 0,197.6263 70.066959,0 11.91965,-10.97924 -70.55804,0 0,-175.66782 261.36161,0 11.91964,-10.97924 -284.709819,0 z"
       id="path4191" />
    <path
       style="fill:#696969;fill-opacity:1;stroke:none"
       d="m 258.37741,880.39094 c -9.24005,0 -16.76357,4.62958 -17.12053,10.44314 l -0.0223,0 0,0.42888 0,145.09924 34.28572,0 0,-145.09924 0,-0.42888 -0.0223,0 c -0.35696,-5.81356 -7.88048,-10.44314 -17.12053,-10.44314 z"
       id="rect4199"
       inkscape:connector-curvature="0"
       sodipodi:nodetypes="sccccccccss" />
    <g
       style="font-size:64px;font-style:normal;font-variant:normal;font-weight:900;font-stretch:normal;line-height:125%;letter-spacing:0px;word-spacing:0px;fill:#f5fffa;fill-opacity:1;stroke:none;font-family:VAL;-inkscape-font-specification:VAL Heavy"
       id="text4260"
       transform="matrix(0.71428571,0,0,0.68620242,73.500001,272.72037)">
      <path
         inkscape:connector-curvature="0"
         d="m 143.02015,749.50813 0,-25.21568 c -0.0734,-2.86259 -1.0787,-5.26523 -3.01596,-7.20791 -1.93735,-1.9426 -4.36665,-2.95325 -7.28791,-3.03196 -2.42267,0.0587 -4.5373,0.83737 -6.34392,2.33597 -1.80667,1.49869 -2.97732,3.36533 -3.51195,5.59993 l 3.77595,5.50393 c 0.072,0.20803 0.024,0.36802 -0.144,0.47999 -0.16803,0.11203 -0.31202,0.08 -0.43199,-0.096 L 115.6285,717.63654 c -0.97334,-0.98928 -2.13065,-1.82661 -3.47196,-2.51197 -1.34133,-0.68528 -2.78664,-1.04261 -4.33594,-1.07199 -2.89063,0.0787 -5.30127,1.08937 -7.2319,3.03196 -1.930648,1.94268 -2.933301,4.34532 -3.007966,7.20791 l 0,25.21568 c 0.07467,2.94663 1.077319,5.37326 3.007966,7.2799 1.93063,1.90664 4.34126,2.8933 7.2319,2.95996 2.45329,-0.0467 4.5866,-0.78532 6.39992,-2.21597 1.81329,-1.43064 2.98661,-3.27328 3.51995,-5.52793 l -3.64795,-5.63192 c -0.072,-0.24666 -0.024,-0.45732 0.144,-0.632 0.16798,-0.17465 0.31198,-0.17731 0.43199,-0.008 1.79063,1.87733 3.60127,3.70663 5.43193,5.48793 1.83062,1.78132 3.68926,3.57863 5.57593,5.39193 2.0274,1.92828 4.37957,2.90723 7.0565,2.93685 2.67687,0.0296 5.03377,-0.81184 7.07073,-2.52441 2.03686,-1.71256 3.10905,-4.21801 3.21655,-7.51634 z"
         id="path4270" />
      <path
         inkscape:connector-curvature="0"
         d="m 144.95573,724.42045 0,25.08768 c 0.068,2.8293 1.05199,5.2026 2.95197,7.1199 1.89997,1.91731 4.30793,2.91463 7.2239,2.99197 l 16.83179,0 c 3.52925,-0.17334 6.10255,-1.36265 7.7199,-3.56796 1.61727,-2.2053 2.41459,-4.3866 2.39197,-6.54391 -4e-5,-1.31331 -0.08,-2.33463 -0.24,-3.06397 -0.16004,-0.72931 -0.40003,-1.35063 -0.71999,-1.86397 -1.20402,1.38266 -2.588,2.29732 -4.15195,2.74396 -1.56401,0.44668 -3.18799,0.57734 -4.87194,0.392 -0.22402,-0.032 -0.33602,-0.15999 -0.33599,-0.384 -3e-5,-0.22398 0.11197,-0.35198 0.33599,-0.38399 1.35462,-0.14132 2.64527,-0.45065 3.87195,-0.92799 1.22662,-0.47731 2.32527,-1.23464 3.29596,-2.27197 1.41195,-1.47596 2.26794,-3.27594 2.56797,-5.39993 0.29996,-2.12395 0.02,-4.16392 -0.83999,-6.11992 -1.29735,1.32934 -2.76666,2.22266 -4.40794,2.67996 -1.64134,0.45736 -3.35065,0.56669 -5.12794,0.328 -0.22402,-0.11864 -0.33602,-0.28131 -0.33599,-0.488 -3e-5,-0.20663 0.11197,-0.3213 0.33599,-0.34399 1.92262,-0.04 3.62926,-0.40797 5.11994,-1.10399 1.49061,-0.69596 2.74926,-1.86394 3.77595,-3.50395 1.3554,-2.22848 1.84448,-4.54114 1.46724,-6.93799 -0.37732,-2.39677 -1.4337,-4.43447 -3.16915,-6.1131 -1.73551,-1.67856 -3.96284,-2.55479 -6.68198,-2.62871 l -16.70379,0 c -3.0613,0.0734 -5.5306,1.0787 -7.4079,3.01596 -1.87731,1.93735 -2.84263,4.36665 -2.89597,7.28791 z"
         id="path4272" />
      <path
         inkscape:connector-curvature="0"
         d="m 206.74544,713.54059 c -6.51194,0.17071 -11.96786,2.45334 -16.36779,6.84791 -4.39995,4.39465 -6.68792,9.87724 -6.86391,16.44779 0.17599,6.59326 2.46396,12.06252 6.86391,16.40779 4.39993,4.34527 9.85586,6.59858 16.36779,6.75991 6.60122,-0.16133 12.10247,-2.41463 16.50378,-6.75991 4.40124,-4.34527 6.68654,-9.81453 6.85592,-16.40779 -0.16938,-6.57055 -2.45468,-12.05314 -6.85592,-16.44779 -4.40131,-4.39457 -9.90256,-6.6772 -16.50378,-6.84791 z m 0,20.86373 c 0.69196,0.009 1.27596,0.23069 1.75197,0.66399 0.47597,0.43335 0.72397,1.02268 0.744,1.76798 -0.02,0.69201 -0.26803,1.276 -0.744,1.75197 -0.47601,0.47602 -1.06001,0.72402 -1.75197,0.744 -0.60002,-0.02 -1.12801,-0.26798 -1.58398,-0.74399 -0.45602,-0.47598 -0.69602,-1.05997 -0.71999,-1.75198 0.024,-0.7453 0.26397,-1.33463 0.71999,-1.76798 0.45597,-0.4333 0.98396,-0.65463 1.58398,-0.66399 z"
         id="path4274" />
      <path
         inkscape:connector-curvature="0"
         d="m 277.27015,749.50813 0,-25.21568 c -0.0734,-2.86259 -1.0787,-5.26523 -3.01596,-7.20791 -1.93735,-1.9426 -4.36665,-2.95325 -7.28791,-3.03196 -2.42267,0.0587 -4.5373,0.83737 -6.34392,2.33597 -1.80667,1.49869 -2.97732,3.36533 -3.51195,5.59993 l 3.77595,5.50393 c 0.072,0.20803 0.024,0.36802 -0.144,0.47999 -0.16803,0.11203 -0.31202,0.08 -0.43199,-0.096 L 249.8785,717.63654 c -0.97334,-0.98928 -2.13065,-1.82661 -3.47196,-2.51197 -1.34133,-0.68528 -2.78664,-1.04261 -4.33594,-1.07199 -2.89063,0.0787 -5.30127,1.08937 -7.2319,3.03196 -1.93065,1.94268 -2.9333,4.34532 -3.00797,7.20791 l 0,25.21568 c 0.0747,2.94663 1.07732,5.37326 3.00797,7.2799 1.93063,1.90664 4.34126,2.8933 7.2319,2.95996 2.45329,-0.0467 4.5866,-0.78532 6.39992,-2.21597 1.81329,-1.43064 2.98661,-3.27328 3.51995,-5.52793 l -3.64795,-5.63192 c -0.072,-0.24666 -0.024,-0.45732 0.144,-0.632 0.16798,-0.17465 0.31198,-0.17731 0.43199,-0.008 1.79063,1.87733 3.60127,3.70663 5.43193,5.48793 1.83062,1.78132 3.68926,3.57863 5.57593,5.39193 2.0274,1.92828 4.37957,2.90723 7.0565,2.93685 2.67687,0.0296 5.03377,-0.81184 7.07073,-2.52441 2.03686,-1.71256 3.10905,-4.21801 3.21655,-7.51634 z"
         id="path4276" />
      <path
         inkscape:connector-curvature="0"
         d="m 308.00536,739.58825 c 2.91327,-0.73063 5.31057,-2.22928 7.19191,-4.49594 1.88127,-2.26661 2.85459,-4.94924 2.91996,-8.0479 -0.10403,-3.73058 -1.38402,-6.7972 -3.83995,-9.19988 -2.456,-2.40259 -5.46396,-3.64524 -9.02388,-3.72795 l -16.06379,0 c -2.85464,0.0654 -5.22528,1.0387 -7.11191,2.91996 -1.88665,1.88136 -2.8653,4.27865 -2.93596,7.19191 l 0,25.02368 c 0.0787,2.8373 1.07332,5.2426 2.98396,7.21591 1.91064,1.9733 4.26527,3.00262 7.06391,3.08796 l 16.89578,0 c 3.55992,-0.164 6.77588,-1.65998 9.64787,-4.48795 2.87193,-2.82795 4.39191,-6.00391 4.55995,-9.52787 -0.007,-2.79062 -0.29738,-4.77726 -0.87199,-5.95993 -0.5747,-1.18263 -1.39336,-2.28928 -2.45597,-3.31995 -1.16136,1.25467 -2.50267,2.23332 -4.02395,2.93596 -1.52135,0.70268 -3.16666,1.08934 -4.93594,1.15998 -0.22402,-0.024 -0.33602,-0.13598 -0.33599,-0.33599 -3e-5,-0.19998 0.11197,-0.34398 0.33599,-0.432 z"
         id="path4278" />
      <path
         inkscape:connector-curvature="0"
         d="m 344.24544,713.54059 c -6.51194,0.17071 -11.96786,2.45334 -16.36779,6.84791 -4.39995,4.39465 -6.68792,9.87724 -6.86391,16.44779 0.17599,6.59326 2.46396,12.06252 6.86391,16.40779 4.39993,4.34527 9.85586,6.59858 16.36779,6.75991 6.60122,-0.16133 12.10247,-2.41463 16.50378,-6.75991 4.40124,-4.34527 6.68654,-9.81453 6.85592,-16.40779 -0.16938,-6.57055 -2.45468,-12.05314 -6.85592,-16.44779 -4.40131,-4.39457 -9.90256,-6.6772 -16.50378,-6.84791 z m 0,20.86373 c 0.69196,0.009 1.27596,0.23069 1.75197,0.66399 0.47597,0.43335 0.72397,1.02268 0.744,1.76798 -0.02,0.69201 -0.26803,1.276 -0.744,1.75197 -0.47601,0.47602 -1.06001,0.72402 -1.75197,0.744 -0.60002,-0.02 -1.12801,-0.26798 -1.58398,-0.74399 -0.45602,-0.47598 -0.69602,-1.05997 -0.71999,-1.75198 0.024,-0.7453 0.26397,-1.33463 0.71999,-1.76798 0.45597,-0.4333 0.98396,-0.65463 1.58398,-0.66399 z"
         id="path4280" />
      <path
         inkscape:connector-curvature="0"
         d="m 391.41045,722.11648 -5.11993,-5.11994 c -1.93199,-2.01593 -4.21196,-3.02391 -6.83992,-3.02396 -2.62797,5e-5 -4.95594,1.00803 -6.98391,3.02396 -1.95197,2.05602 -2.92796,4.43998 -2.92796,7.15191 0,2.712 0.97599,5.12797 2.92796,7.24791 l 4.86394,5.11993 -5.43993,5.75993 c -1.91997,2.15199 -2.87996,4.58395 -2.87996,7.2959 0,2.71198 0.95999,5.07994 2.87996,7.10391 2.04664,2.04798 4.36927,3.07196 6.96791,3.07196 2.59862,0 4.90526,-1.02398 6.91991,-3.07196 l 5.63193,-5.75992 5.63193,5.75992 c 2.01461,2.04798 4.32124,3.07196 6.91991,3.07196 2.5986,0 4.92123,-1.02398 6.96791,-3.07196 1.91993,-2.02396 2.87992,-4.39193 2.87996,-7.10391 -4e-5,-2.71195 -0.96003,-5.14392 -2.87996,-7.2959 l -5.43993,-5.75993 4.86394,-5.11993 c 1.95193,-2.11994 2.92791,-4.53591 2.92796,-7.24791 -4e-5,-2.71193 -0.97603,-5.09589 -2.92796,-7.15191 -2.01602,-2.01593 -4.31998,-3.02391 -6.91191,-3.02396 -2.592,5e-5 -4.89597,1.00803 -6.91192,3.02396 z"
         id="path4282" />
    </g>
    <path
       style="fill:#a9a9a9;fill-opacity:1;stroke:none"
       d="m 258.37745,880.3867 c -9.24005,0 -16.76357,4.62958 -17.12054,10.44315 l -0.0223,0 0,0.42887 0,145.10808 19.15178,0 0,-155.89432 c -0.6581,-0.0486 -1.33014,-0.0858 -2.00892,-0.0858 z"
       id="path4264"
       inkscape:connector-curvature="0"
       sodipodi:nodetypes="ccccccccc" />
    <path
       inkscape:connector-curvature="0"
       style="opacity:0.38461537;fill:#808080;fill-opacity:1;stroke:none"
       d="m 258.37745,880.3867 c -9.24005,0 -16.76357,4.62958 -17.12054,10.44314 l -0.0223,0 0,0.42888 0,36.90482 34.28571,-3.61771 0,-33.28711 0,-0.42888 -0.0223,0 c -0.35704,-5.81356 -7.88056,-10.44314 -17.12061,-10.44314 z"
       id="path4207"
       sodipodi:nodetypes="sccccccccs" />
  </g>
</svg>
