<svg xmlns="http://www.w3.org/2000/svg" xmlns:xlink="http://www.w3.org/1999/xlink" width="300" height="200"><defs><linearGradient id="a"><stop offset="0" stop-color="#2d2d2d"/><stop offset="1" stop-color="#2d2d2d" stop-opacity="0"/></linearGradient><linearGradient xlink:href="#a" id="b" x1="205.946" y1="147.568" x2="329.73" y2="251.351" gradientUnits="userSpaceOnUse"/><filter id="c" x="-.602" width="2.205" y="-.602" height="2.205"><feGaussianBlur stdDeviation="27.337"/></filter></defs><g transform="translate(0 -852.362)"><path d="M201 63a71 71 0 1 1-142 0 71 71 0 1 1 142 0z" transform="translate(18.5 885.862)" fill="#717171" stroke="#fff" stroke-linejoin="bevel"/><rect width="300" height="200" y="852.362" fill="#4a4a4a"/><path d="M101.081 1001.551l101.351-101.351 145.676 132.162-108.418 90.815z" fill="url(#b)" opacity=".662"/><rect width="10.607" height="36.593" x="144.957" y="1016.456"/><path transform="matrix(1.299 0 0 1.299 -25.419 633.104)" d="M191.626 246.669a54.447 54.447 0 1 1-108.894 0 54.447 54.447 0 1 1 108.894 0z"/><path d="M191.626 246.669a54.447 54.447 0 1 1-108.894 0 54.447 54.447 0 1 1 108.894 0z" transform="matrix(1.299 0 0 1.299 -25.419 629.836)" fill="#2d2d2d"/><path transform="matrix(1.156 0 0 1.156 -5.822 665.074)" d="M191.626 246.669a54.447 54.447 0 1 1-108.894 0 54.447 54.447 0 1 1 108.894 0z" fill="#292525"/><g style="line-height:125%;-inkscape-font-specification:olivier" font-size="58.842" letter-spacing="0" word-spacing="0" fill="#f5f5f5" font-family="olivier"><path d="M131.682 951.097c.118.236.129.746.03 1.531-.098.785-.236 1.618-.412 2.501-.177.882-.363 1.706-.559 2.471-.196.765-.353 1.226-.47 1.383-.785 1.02-1.668 2.02-2.649 3.001-.98.98-2.099 1.726-3.354 2.236-2.078.825-4.127 1.168-6.148 1.031-2.02-.138-3.903-.658-5.649-1.56s-3.325-2.128-4.737-3.678c-1.412-1.55-2.55-3.305-3.413-5.266-.824-1.844-1.363-3.962-1.618-6.355-.255-2.393-.216-4.796.118-7.208.333-2.412.961-4.678 1.883-6.796.922-2.118 2.187-3.825 3.796-5.12 1.687-1.334 3.393-2.206 5.119-2.618 1.726-.412 3.393-.529 5.001-.353 1.608.177 3.099.579 4.472 1.207 1.373.628 2.53 1.294 3.471 2 .275.196.756.55 1.443 1.059.687.51 1.255 1.049 1.706 1.618.451.569.627 1.069.529 1.5-.098.432-.775.667-2.029.707-.863.04-1.687-.019-2.472-.176-.785-.157-1.569-.343-2.353-.559-.784-.216-1.569-.412-2.353-.589-.785-.177-1.609-.265-2.472-.265-4.511 0-7.296 3.08-8.355 9.239-.157.941-.304 2.029-.442 3.266-.138 1.236-.216 2.531-.235 3.884-.019 1.353.05 2.677.206 3.971.157 1.294.441 2.471.853 3.53.412 1.059.98 1.923 1.706 2.589.725.667 1.677 1.04 2.853 1.119 1.059.078 2.089-.05 3.09-.383 1-.333 1.961-.784 2.883-1.353.922-.569 1.804-1.186 2.648-1.853.843-.667 1.638-1.334 2.384-2 .117-.119.421-.482.912-1.09.491-.608 1.05-1.187 1.677-1.736.627-.549 1.216-.961 1.765-1.235.549-.275.942-.157 1.176.353l.178.383-.03-.059-.089-.207-.059-.118z"/><path d="M149.887 940.212c-.117.51-.45.932-.999 1.265-.549.333-1.177.677-1.883 1.03s-1.432.746-2.177 1.177c-.745.432-1.373 1.001-1.883 1.707-.785 1.137-1.335 2.49-1.648 4.059-.314 1.569-.461 3.069-.441 4.501.02 1.432.196 2.668.53 3.707.333 1.04.755 1.56 1.265 1.56.627 0 1.284-.294 1.971-.883.687-.588 1.305-1.265 1.854-2.03.549-.765 1-1.549 1.353-2.353.353-.804.529-1.422.529-1.854 0-.431-.019-1.029-.058-1.794-.039-.765-.029-1.52.03-2.265.059-.745.176-1.393.353-1.942.177-.549.48-.844.911-.883.432-.038.952-.136 1.56-.293.608-.157 1.187-.177 1.736-.059.549.117.99.5 1.323 1.147.333.647.461 1.755.383 3.325-.119 3.177.038 5.58.47 7.208.432 1.628 1.275 2.58 2.531 2.855.863.157 1.638-.049 2.325-.619.687-.569 1.304-1.207 1.853-1.912.549-.706 1.02-1.343 1.412-1.912.393-.569.706-.795.941-.676.275.117.373.608.294 1.471-.079.863-.373 1.834-.883 2.913-.509 1.079-1.265 2.157-2.265 3.236-1.001 1.079-2.285 1.912-3.854 2.501-.824.314-1.589.47-2.295.47s-1.344-.098-1.912-.294c-.569-.196-1.069-.471-1.5-.824-.432-.353-.824-.745-1.177-1.176-.785-.98-1.413-2.197-1.884-3.649-.391.942-.94 1.766-1.647 2.473-.589.627-1.354 1.206-2.296 1.736-.942.53-2.099.834-3.472.911-1.372.04-2.666-.392-3.882-1.294-1.216-.902-2.187-2.118-2.913-3.648-.725-1.53-1.118-3.305-1.177-5.325-.059-2.02.382-4.148 1.324-6.385.627-1.452 1.451-2.688 2.471-3.708s2.108-1.853 3.265-2.501c1.157-.647 2.314-1.117 3.471-1.411 1.157-.294 2.197-.461 3.119-.5.922-.04 1.668.029 2.237.206.569.177.813.422.734.735z"/><path d="M180.263 924.206c0 .589-.284.952-.853 1.089s-1.216.216-1.941.235c-.725.02-1.441.098-2.148.235-.706.137-1.197.5-1.471 1.089-.275.588-.501 1.303-.678 2.147-.177.843-.324 1.766-.441 2.766-.117 1.001-.196 2.041-.235 3.119-.04 1.079-.059 2.147-.059 3.205 0 2.433.078 5.042.235 7.828.432-.118.982-.256 1.648-.413.548-.117 1.235-.254 2.059-.411.824-.157 1.805-.333 2.942-.53 1.177-.157 2.108-.157 2.795 0 .687.157 1.147.383 1.383.677.235.295.245.608.03.942-.216.333-.637.559-1.266.676-1.294.314-2.51.657-3.647 1.03s-2.138.736-3.001 1.089c-1.02.431-1.923.843-2.708 1.235.196 3.02.275 5.766.235 8.237 0 1.059-.029 2.129-.088 3.207-.059 1.079-.147 2.069-.265 2.972-.118.903-.285 1.687-.5 2.354-.215.667-.46 1.137-.734 1.411-.549.51-1.148.951-1.795 1.324-.647.373-1.255.618-1.824.735-.569.117-1.07.088-1.501-.089-.432-.177-.706-.559-.823-1.147-.078-.314-.136-.794-.176-1.442-.04-.648-.069-1.373-.089-2.177-.02-.804-.02-1.677 0-2.618.02-.942.03-1.864.03-2.766.04-2.157.079-4.491.119-7.001-.158.078-.315.176-.472.294-.353.235-.843.372-1.471.411-.863.117-1.51-.118-1.942-.707-.432-.588-.431-1.373.001-2.353.196-.47.481-.902.853-1.294s.775-.746 1.207-1.06c.47-.352 1-.646 1.587-.882-.195-3.02-.254-5.923-.176-8.709 0-1.177.039-2.393.118-3.648.078-1.255.196-2.481.353-3.678.157-1.197.353-2.324.589-3.383.236-1.059.53-1.981.882-2.766.589-1.294 1.325-2.265 2.208-2.912.883-.647 1.815-1.049 2.795-1.206.98-.157 1.961-.147 2.941.029.98.176 1.863.441 2.648.794.785.353 1.422.726 1.912 1.119s.735.706.735.941z"/><path d="M183.79 942.625c.549-1.059 1.275-1.982 2.177-2.766.902-.785 1.893-1.422 2.972-1.912s2.217-.853 3.413-1.088c1.196-.235 2.363-.353 3.502-.353 1.177.078 2.187.46 3.03 1.147s1.442 1.569 1.795 2.648c.353 1.079.422 2.285.206 3.619s-.795 2.688-1.736 4.061c-1.02 1.49-2.109 2.608-3.266 3.353-1.158.745-2.227 1.275-3.207 1.588-1.137.393-2.255.569-3.353.53-.04 1.49.117 2.765.47 3.825.157.47.343.912.558 1.323.215.412.5.775.853 1.088.353.314.785.539 1.295.677.51.138 1.098.148 1.765.03 1.413-.236 2.56-.756 3.442-1.56.882-.804 1.618-1.619 2.206-2.442.588-.824 1.069-1.54 1.442-2.148.373-.608.736-.834 1.089-.677.431.196.656.687.676 1.472.02.785-.166 1.707-.558 2.766s-.971 2.148-1.736 3.266c-.765 1.118-1.736 2.069-2.913 2.853-1.177.785-2.53 1.324-4.06 1.619-1.53.294-3.236.147-5.12-.442-1.53-.47-2.805-1.216-3.825-2.236-1.02-1.02-1.824-2.197-2.413-3.53-.588-1.334-.981-2.765-1.177-4.295-.196-1.53-.226-3.05-.088-4.56.138-1.51.432-2.952.883-4.325.451-1.373 1.009-2.55 1.676-3.53zm5.473 6.412c.51-.078 1.079-.235 1.706-.47.549-.196 1.148-.491 1.795-.883s1.343-.941 2.089-1.648c.706-.667 1.187-1.314 1.442-1.941.255-.627.402-1.157.44-1.589.04-.51-.039-.98-.235-1.411-.549-.157-1.138-.157-1.765 0-.549.157-1.158.47-1.824.941-.667.47-1.353 1.216-2.06 2.236-.548.784-.94 1.48-1.175 2.088-.235.608-.392 1.109-.471 1.501-.079.47-.059.863.059 1.176z"/></g><path d="M152.75 891.8c-32.241 0-58.406 26.134-58.406 58.375s26.165 58.375 58.406 58.375 58.375-26.134 58.375-58.375-26.134-58.375-58.375-58.375zm0 2.156c31.047 0 56.188 25.171 56.188 56.219 0 31.047-25.14 56.219-56.188 56.219-31.047 0-56.219-25.171-56.219-56.219 0-31.047 25.171-56.219 56.219-56.219z" fill="#fff"/><path d="M138.594 978.89c.149 7.797 3.417 14.456 8.063 17.438-6.218.108-10.688.39-10.688.719 0 .323 4.295.575 10.344.688.059.254.29.438.563.438h10.875c.273 0 .504-.183.563-.438 6.034-.112 10.344-.365 10.344-.688 0-.334-4.672-.615-11.063-.719 4.643-2.983 7.914-9.643 8.063-17.438h-27.063z" fill="#f5f5f5"/><path d="M152.75 879.487c-39.052 0-70.719 31.635-70.719 70.688 0 20.715 8.9 39.349 23.094 52.281l96.656-103.188c-12.715-12.251-29.981-19.781-49.031-19.781z" opacity=".084" fill="#fffafa"/><path d="M191.626 246.669a54.447 54.447 0 1 1-108.894 0 54.447 54.447 0 1 1 108.894 0z" transform="matrix(1.156 0 0 1.156 -5.822 665.074)" opacity=".873" fill="#fff" filter="url(#c)"/></g></svg>