<?xml version="1.0" encoding="UTF-8" standalone="no"?>
<!-- Created with Inkscape (http://www.inkscape.org/) -->

<svg
   xmlns:dc="http://purl.org/dc/elements/1.1/"
   xmlns:cc="http://creativecommons.org/ns#"
   xmlns:rdf="http://www.w3.org/1999/02/22-rdf-syntax-ns#"
   xmlns:svg="http://www.w3.org/2000/svg"
   xmlns="http://www.w3.org/2000/svg"
   xmlns:sodipodi="http://sodipodi.sourceforge.net/DTD/sodipodi-0.dtd"
   xmlns:inkscape="http://www.inkscape.org/namespaces/inkscape"
   width="512"
   height="512"
   id="svg2"
   version="1.1"
   inkscape:version="0.48.2 r9819"
   sodipodi:docname="plangtoko.svg">
  <defs
     id="defs4" />
  <sodipodi:namedview
     id="base"
     pagecolor="#ffffff"
     bordercolor="#666666"
     borderopacity="1.0"
     inkscape:pageopacity="0.0"
     inkscape:pageshadow="2"
     inkscape:zoom="1.4142136"
     inkscape:cx="133.57302"
     inkscape:cy="306.51241"
     inkscape:document-units="px"
     inkscape:current-layer="layer1"
     showgrid="true"
     inkscape:window-width="1920"
     inkscape:window-height="1005"
     inkscape:window-x="0"
     inkscape:window-y="22"
     inkscape:window-maximized="1"
     showguides="true"
     inkscape:guide-bbox="true">
    <inkscape:grid
       type="xygrid"
       id="grid2985"
       empspacing="5"
       visible="true"
       enabled="true"
       snapvisiblegridlinesonly="true"
       dotted="true"
       spacingx="16px"
       spacingy="16px" />
  </sodipodi:namedview>
  <metadata
     id="metadata7">
    <rdf:RDF>
      <cc:Work
         rdf:about="">
        <dc:format>image/svg+xml</dc:format>
        <dc:type
           rdf:resource="http://purl.org/dc/dcmitype/StillImage" />
        <dc:title />
      </cc:Work>
    </rdf:RDF>
  </metadata>
  <g
     inkscape:label="Layer 1"
     inkscape:groupmode="layer"
     id="layer1"
     transform="translate(0,-540.36218)">
    <path
       sodipodi:type="arc"
       style="fill:#00bfff;fill-opacity:1;fill-rule:nonzero;stroke:none"
       id="path5904"
       sodipodi:cx="240"
       sodipodi:cy="256"
       sodipodi:rx="240"
       sodipodi:ry="240"
       d="m 480,256 a 240,240 0 1 1 -480,0 240,240 0 1 1 480,0 z"
       transform="translate(16,540.36218)" />
    <path
       style="fill:#98e5ff;fill-opacity:1;fill-rule:nonzero;stroke:none"
       d="M 43.6875 368 C 83.928077 444.12235 163.90445 496 256 496 C 348.09555 496 428.07192 444.12235 468.3125 368 L 43.6875 368 z "
       id="rect6541"
       transform="translate(0,540.36218)" />
    <path
       style="fill:#fffafa;fill-opacity:1;fill-rule:nonzero;stroke:none"
       d="M 40.625 362 C 43.315715 367.45664 46.228962 372.78714 49.3125 378 L 462.6875 378 C 465.77104 372.78714 468.68428 367.45664 471.375 362 L 40.625 362 z "
       id="rect6499"
       transform="translate(0,540.36218)" />
    <path
       style="fill:#fffafa;fill-opacity:1;fill-rule:nonzero;stroke:none"
       d="M 240 368 L 240 495.46875 C 245.28708 495.81669 250.62487 496 256 496 C 261.37513 496 266.71292 495.81669 272 495.46875 L 272 368 L 240 368 z "
       id="rect6466"
       transform="translate(0,540.36218)" />
    <path
       style="fill:#ff6347;fill-opacity:1;stroke:none"
       d="M 38.53125 154.34375 C 24.078307 185.21087 16 219.66443 16 256 C 16 291.19799 23.575523 324.63357 37.1875 354.75 L 474.8125 354.75 C 488.42448 324.63357 496 291.19799 496 256 C 496 219.66443 487.92169 185.21087 473.46875 154.34375 L 38.53125 154.34375 z "
       transform="translate(0,540.36218)"
       id="rect5020" />
    <g
       style="font-size:109.91240692px;font-style:normal;font-variant:normal;font-weight:900;font-stretch:normal;line-height:125%;letter-spacing:0px;word-spacing:0px;fill:#f5f5f5;fill-opacity:1;stroke:none;font-family:VAL;-inkscape-font-specification:VAL Heavy"
       id="text4947"
       transform="matrix(0.85702329,0,0,0.88292936,35.771796,48.952153)">
      <path
         d="m 173.90121,823.26469 c -0.13059,-4.95508 -1.87543,-9.05842 -5.23451,-12.31003 -3.35922,-3.25146 -7.54957,-4.93676 -12.57107,-5.0559 -4.33238,7e-5 -8.30749,7e-5 -11.92535,0 -3.61794,7e-5 -7.59305,7e-5 -11.92534,0 -7.94023,0.0756 -14.20687,1.93725 -18.79993,5.58485 -4.59309,3.64774 -7.51775,8.13347 -8.77399,13.45722 -1.25625,5.32387 -0.84923,10.53777 1.22104,15.64171 2.07028,5.10403 5.79866,9.15013 11.18516,12.1383 1.43799,0.73048 2.93095,1.35789 4.47888,1.88222 1.54789,0.5244 3.0958,0.84955 4.64374,0.97546 0.43046,0.20383 0.61364,0.48318 0.54955,0.83808 -0.0641,0.35495 -0.3206,0.55187 -0.76938,0.59077 -2.62414,2e-5 -5.262,-0.35719 -7.91359,-1.07163 -2.65161,-0.7144 -5.06965,-1.78603 -7.25412,-3.2149 -2.40431,1.74487 -4.16288,3.75074 -5.27573,6.01763 -1.11285,2.26693 -1.6624,4.87732 -1.64866,7.83115 0.14425,4.14687 1.88909,8.05328 5.23451,11.71926 3.34541,3.666 7.42585,5.62149 12.24133,5.8665 4.43764,0 8.47686,0 12.11769,0 3.64077,0 7.62504,0 11.95282,0 8.70925,-0.20694 15.40237,-2.48587 20.07936,-6.83681 4.67688,-4.35092 7.3445,-9.53218 8.0029,-15.54381 0.65825,-6.01159 -0.68587,-11.61189 -4.03236,-16.80093 -3.34662,-5.18895 -8.68875,-8.72499 -16.0264,-10.60813 -0.42595,-0.15566 -0.59082,-0.42128 -0.4946,-0.79686 0.0961,-0.37547 0.3709,-0.58614 0.82434,-0.63198 2.20961,0.16034 4.35745,0.52671 6.44353,1.09911 2.08596,0.5725 4.04145,1.37852 5.8665,2.41804 2.58513,-1.34636 4.53147,-3.15989 5.83902,-5.44059 1.30741,-2.2806 1.9623,-4.86351 1.96466,-7.74873 z"
         style="fill:#f5f5f5;fill-opacity:1"
         id="path4952"
         inkscape:connector-curvature="0" />
      <path
         d="m 234.57988,884.15538 c 4.91159,-0.12365 9.01951,-1.82727 12.32377,-5.11086 3.30413,-3.28359 5.02149,-7.40524 5.15208,-12.36499 l 0,-43.30493 c -0.13059,-4.907 -1.84795,-8.9966 -5.15207,-12.26881 -3.30427,-3.27207 -7.41219,-4.97111 -12.32378,-5.09712 -5.01703,0.12601 -9.18906,1.82505 -12.51611,5.09712 -3.32714,3.27221 -5.05366,7.36181 -5.17956,12.26881 l 0,3.9568 c -0.0183,0.62517 -0.2565,1.16099 -0.71442,1.60745 -0.458,0.44656 -1.02587,0.68012 -1.70362,0.70068 -0.67782,-0.0206 -1.24569,-0.25411 -1.70362,-0.70068 -0.458,-0.44646 -0.69614,-0.98228 -0.71442,-1.60745 -3e-5,-0.66628 -3e-5,-1.33948 0,-2.01962 -3e-5,-0.68001 -3e-5,-1.32574 0,-1.93718 -0.11681,-5.00317 -1.8067,-9.12025 -5.06965,-12.35125 -3.26301,-3.23085 -7.3984,-4.90241 -12.4062,-5.01468 -4.91166,0.11228 -9.01958,1.78384 -12.32377,5.01469 -3.3042,3.23099 -5.02156,7.34807 -5.15207,12.35124 l 0,43.30493 c 0.13051,5.05592 1.84787,9.20506 5.15207,12.44742 3.3042,3.24238 7.41211,4.91852 12.32377,5.02843 5.0078,-0.10991 9.1432,-1.78605 12.40621,-5.02843 3.26294,-3.24236 4.95283,-7.3915 5.06964,-12.44742 -3e-5,-0.49916 -3e-5,-1.06703 0,-1.70362 -3e-5,-0.63655 -3e-5,-1.31433 0,-2.03335 0.0183,-0.67776 0.25642,-1.24564 0.71442,-1.70362 0.45793,-0.45794 1.0258,-0.69608 1.70362,-0.71442 0.67775,0.0183 1.24562,0.25648 1.70362,0.71442 0.45792,0.45798 0.69607,1.02586 0.71442,1.70362 l 0,3.73697 c 0.1259,4.95975 1.85242,9.08141 5.17956,12.36499 3.32705,3.28359 7.49908,4.98721 12.51611,5.11086 z"
         style="fill:#f5f5f5;fill-opacity:1"
         id="path4954"
         inkscape:connector-curvature="0" />
      <path
         d="m 295.01992,804.90956 c -11.18347,0.29317 -20.55337,4.21333 -28.10974,11.76047 -7.55638,7.54728 -11.48569,16.96298 -11.78795,28.24713 0.30226,11.32315 4.23157,20.71595 11.78796,28.17843 7.55636,7.4625 16.92626,11.33228 28.10973,11.60935 11.33681,-0.27707 20.78457,-4.14685 28.3433,-11.60935 7.55859,-7.46248 11.48333,-16.85528 11.77421,-28.17843 -0.29088,-11.28415 -4.21562,-20.69985 -11.77421,-28.24713 -7.55873,-7.54714 -17.00649,-11.4673 -28.3433,-11.76047 z m 0,35.83098 c 1.18837,0.0161 2.19131,0.39618 3.00881,1.14033 0.81742,0.74423 1.24333,1.75632 1.27772,3.03629 -0.0344,1.18845 -0.46029,2.19138 -1.27772,3.00881 -0.8175,0.8175 -1.82044,1.2434 -3.00881,1.27772 -1.03045,-0.0343 -1.93722,-0.46022 -2.7203,-1.27772 -0.78315,-0.81743 -1.19531,-1.82036 -1.23649,-3.00881 0.0412,-1.27997 0.45334,-2.29206 1.2365,-3.0363 0.78307,-0.74414 1.68984,-1.12425 2.72029,-1.14032 z"
         style="fill:#f5f5f5;fill-opacity:1"
         id="path4956"
         inkscape:connector-curvature="0" />
      <path
         d="m 356.34616,884.81485 c 4.96887,-0.14197 9.12716,-1.91886 12.4749,-5.33069 3.34767,-3.41181 5.08793,-7.60674 5.22077,-12.5848 l 0,-8.90279 c 0.0251,-0.44878 0.16712,-0.70524 0.42591,-0.76938 0.25871,-0.0641 0.48311,0.1191 0.6732,0.54955 l 1.9784,10.77128 c 9.03097,0.0321 16.57819,-2.9172 22.64166,-8.84784 6.06336,-5.93058 9.21414,-13.3862 9.45235,-22.36688 -0.20844,-8.90274 -3.22641,-16.29424 -9.05392,-22.17454 -5.82763,-5.88017 -13.21456,-8.9302 -22.1608,-9.15009 l -21.65247,0 c -5.23223,0.1306 -9.55081,1.87543 -12.95576,5.23451 -3.40495,3.35922 -5.1681,7.54958 -5.28946,12.57107 l 0,43.08511 c 0.12136,5.12232 1.88451,9.35847 5.28946,12.70845 3.40495,3.35 7.72353,5.08567 12.95576,5.20704 z m 19.34434,-51.54826 c 1.18837,0.0252 2.1913,0.41451 3.00881,1.16781 0.81742,0.7534 1.24332,1.7197 1.27771,2.8989 -0.0344,1.18846 -0.46029,2.19139 -1.27771,3.00881 -0.81751,0.81751 -1.82044,1.24341 -3.00881,1.27772 -0.5496,-0.0183 -1.09915,-0.20146 -1.64867,-0.54956 l 0,-7.58386 c 0.27474,-0.10528 0.54952,-0.16939 0.82433,-0.19234 0.27474,-0.0229 0.54952,-0.032 0.82434,-0.0275 z"
         style="fill:#f5f5f5;fill-opacity:1"
         id="path4958"
         inkscape:connector-curvature="0" />
    </g>
    <path
       style="fill:#800000;fill-opacity:1;stroke:none"
       d="M 37.1875 354.75 C 39.219665 359.24616 41.391451 363.65661 43.6875 368 L 468.3125 368 C 470.60855 363.65661 472.78033 359.24616 474.8125 354.75 L 37.1875 354.75 z "
       id="rect4909"
       transform="translate(0,540.36218)" />
    <g
       transform="matrix(0.85702329,0,0,0.88292936,356.07756,44.605309)"
       id="g4997">
      <g
         id="g4999"
         transform="translate(-321,0)">
        <rect
           style="fill:#696969;fill-opacity:1;stroke:none"
           id="rect5001"
           width="94"
           height="58.75"
           x="353"
           y="715.98718" />
        <path
           style="fill:#828282;fill-opacity:1;stroke:none"
           d="m 353.06066,175.55806 -0.12316,58.75444 93.95765,-58.66605 z"
           id="path5003"
           inkscape:connector-curvature="0"
           transform="translate(0,540.36218)"
           sodipodi:nodetypes="cccc" />
        <path
           style="fill:#dcdcdc;fill-opacity:1;stroke:none"
           d="M 367.64645,168.13173 368,208 l 64,0 -0.35355,-39.86827 z m 4.60355,8.21202 55.0625,0 0,26 -55.0625,0 z"
           id="path5005"
           transform="translate(0,540.36218)"
           inkscape:connector-curvature="0"
           sodipodi:nodetypes="cccccccccc" />
        <rect
           y="727.73718"
           x="375.88281"
           height="35.25"
           width="48.234375"
           id="rect5007"
           style="fill:#a9a9a9;fill-opacity:1;stroke:none" />
        <rect
           style="fill:#696969;fill-opacity:1;stroke:none"
           id="rect5009"
           width="32.970562"
           height="8.9289322"
           x="382.93936"
           y="704.66119"
           ry="3.9791844" />
      </g>
      <rect
         style="fill:#000000;fill-opacity:1;stroke:none"
         id="rect5011"
         width="94.052513"
         height="1.0911889"
         x="31.9375"
         y="774.646" />
    </g>
    <g
       id="g4962"
       transform="matrix(0.85702329,0,0,0.88292936,20.077556,44.605309)">
      <g
         transform="translate(-321,0)"
         id="g4882">
        <rect
           y="715.98718"
           x="353"
           height="58.75"
           width="94"
           id="rect4884"
           style="fill:#696969;fill-opacity:1;stroke:none" />
        <path
           sodipodi:nodetypes="cccc"
           transform="translate(0,540.36218)"
           inkscape:connector-curvature="0"
           id="path4886"
           d="m 353.06066,175.55806 -0.12316,58.75444 93.95765,-58.66605 z"
           style="fill:#828282;fill-opacity:1;stroke:none" />
        <path
           sodipodi:nodetypes="cccccccccc"
           inkscape:connector-curvature="0"
           transform="translate(0,540.36218)"
           id="path4888"
           d="M 367.64645,168.13173 368,208 l 64,0 -0.35355,-39.86827 z m 4.60355,8.21202 55.0625,0 0,26 -55.0625,0 z"
           style="fill:#dcdcdc;fill-opacity:1;stroke:none" />
        <rect
           style="fill:#a9a9a9;fill-opacity:1;stroke:none"
           id="rect4890"
           width="48.234375"
           height="35.25"
           x="375.88281"
           y="727.73718" />
        <rect
           ry="3.9791844"
           y="704.66119"
           x="382.93936"
           height="8.9289322"
           width="32.970562"
           id="rect4892"
           style="fill:#696969;fill-opacity:1;stroke:none" />
      </g>
      <rect
         y="774.646"
         x="31.9375"
         height="1.0911889"
         width="94.052513"
         id="rect4923"
         style="fill:#000000;fill-opacity:1;stroke:none" />
    </g>
  </g>
</svg>
